<?xml version="1.0" encoding="us-ascii" standalone="no"?><svg xmlns="http://www.w3.org/2000/svg" xmlns:xlink="http://www.w3.org/1999/xlink" contentStyleType="text/css" height="1265px" preserveAspectRatio="none" style="width:8096px;height:1265px;background:#FFFFFF;" version="1.1" viewBox="0 0 8096 1265" width="8096px" zoomAndPan="magnify"><defs/><g><!--class apiService--><g id="elem_apiService"><rect codeLine="1" fill="#F1F1F1" height="194.6719" id="apiService" rx="2.5" ry="2.5" style="stroke:#181818;stroke-width:0.5;" width="320" x="528.5" y="55.5"/><ellipse cx="646.75" cy="71.5" fill="#ADD1B2" rx="11" ry="11" style="stroke:#181818;stroke-width:1.0;"/><path d="M649.0938,67.1719 C648.1563,66.7344 647.5625,66.5938 646.6875,66.5938 C644.0625,66.5938 642.0625,68.6719 642.0625,71.3906 L642.0625,72.5156 C642.0625,75.0938 644.1719,76.9844 647.0625,76.9844 C648.2813,76.9844 649.4375,76.6875 650.1875,76.1406 C650.7656,75.7344 651.0938,75.2813 651.0938,74.8906 C651.0938,74.4375 650.7031,74.0469 650.2344,74.0469 C650.0156,74.0469 649.8125,74.125 649.625,74.3125 C649.1719,74.7969 649.1719,74.7969 648.9844,74.8906 C648.5625,75.1563 647.875,75.2813 647.1094,75.2813 C645.0625,75.2813 643.7656,74.1875 643.7656,72.4844 L643.7656,71.3906 C643.7656,69.6094 645.0156,68.2969 646.75,68.2969 C647.3281,68.2969 647.9375,68.4531 648.4063,68.7031 C648.8906,68.9844 649.0625,69.2031 649.1563,69.6094 C649.2188,70.0156 649.25,70.1406 649.3906,70.2656 C649.5313,70.4063 649.7656,70.5156 649.9844,70.5156 C650.25,70.5156 650.5156,70.375 650.6875,70.1563 C650.7969,70 650.8281,69.8125 650.8281,69.3906 L650.8281,67.9688 C650.8281,67.5313 650.8125,67.4063 650.7188,67.25 C650.5625,66.9844 650.2813,66.8438 649.9844,66.8438 C649.6875,66.8438 649.4844,66.9375 649.2656,67.25 L649.0938,67.1719 Z " fill="#000000"/><text fill="#000000" font-family="sans-serif" font-size="14" lengthAdjust="spacing" textLength="75" x="667.25" y="76.3467">apiService</text><line style="stroke:#181818;stroke-width:0.5;" x1="529.5" x2="847.5" y1="87.5" y2="87.5"/><ellipse cx="539.5" cy="101.1484" fill="none" rx="3" ry="3" style="stroke:#038048;stroke-width:1.0;"/><text fill="#000000" font-family="sans-serif" font-size="14" lengthAdjust="spacing" textLength="154" x="548.5" y="104.4951">urlServeurSGB: string</text><ellipse cx="539.5" cy="117.4453" fill="none" rx="3" ry="3" style="stroke:#038048;stroke-width:1.0;"/><text fill="#000000" font-family="sans-serif" font-size="14" lengthAdjust="spacing" textLength="122" x="548.5" y="120.792">command: string</text><ellipse cx="539.5" cy="133.7422" fill="none" rx="3" ry="3" style="stroke:#038048;stroke-width:1.0;"/><text fill="#000000" font-family="sans-serif" font-size="14" lengthAdjust="spacing" textLength="134" x="548.5" y="137.0889">groupeCours: JSON</text><ellipse cx="539.5" cy="150.0391" fill="none" rx="3" ry="3" style="stroke:#038048;stroke-width:1.0;"/><text fill="#000000" font-family="sans-serif" font-size="14" lengthAdjust="spacing" textLength="82" x="548.5" y="153.3857">cours: any[]</text><ellipse cx="539.5" cy="166.3359" fill="none" rx="3" ry="3" style="stroke:#038048;stroke-width:1.0;"/><text fill="#000000" font-family="sans-serif" font-size="14" lengthAdjust="spacing" textLength="139" x="548.5" y="169.6826">teacherLogin: any[]</text><ellipse cx="539.5" cy="182.6328" fill="none" rx="3" ry="3" style="stroke:#038048;stroke-width:1.0;"/><text fill="#000000" font-family="sans-serif" font-size="14" lengthAdjust="spacing" textLength="135" x="548.5" y="185.9795">acceptance: string</text><line style="stroke:#181818;stroke-width:0.5;" x1="529.5" x2="847.5" y1="193.2813" y2="193.2813"/><ellipse cx="539.5" cy="206.9297" fill="#84BE84" rx="3" ry="3" style="stroke:#038048;stroke-width:1.0;"/><text fill="#000000" font-family="sans-serif" font-size="14" lengthAdjust="spacing" textLength="294" x="548.5" y="210.2764">getTeacherFromToken(): Promise&lt;void&gt;</text><ellipse cx="539.5" cy="223.2266" fill="#84BE84" rx="3" ry="3" style="stroke:#038048;stroke-width:1.0;"/><text fill="#000000" font-family="sans-serif" font-size="14" lengthAdjust="spacing" textLength="269" x="548.5" y="226.5732">getAllTeacherLogin(): Promise&lt;void&gt;</text><ellipse cx="539.5" cy="239.5234" fill="#84BE84" rx="3" ry="3" style="stroke:#038048;stroke-width:1.0;"/><text fill="#000000" font-family="sans-serif" font-size="14" lengthAdjust="spacing" textLength="242" x="548.5" y="242.8701">getAllSchedule(): Promise&lt;any[]&gt;</text></g><!--class Devoir--><g id="elem_Devoir"><rect codeLine="12" fill="#F1F1F1" height="210.9688" id="Devoir" rx="2.5" ry="2.5" style="stroke:#181818;stroke-width:0.5;" width="778" x="883.5" y="47.5"/><ellipse cx="1244.75" cy="63.5" fill="#ADD1B2" rx="11" ry="11" style="stroke:#181818;stroke-width:1.0;"/><path d="M1247.0938,59.1719 C1246.1563,58.7344 1245.5625,58.5938 1244.6875,58.5938 C1242.0625,58.5938 1240.0625,60.6719 1240.0625,63.3906 L1240.0625,64.5156 C1240.0625,67.0938 1242.1719,68.9844 1245.0625,68.9844 C1246.2813,68.9844 1247.4375,68.6875 1248.1875,68.1406 C1248.7656,67.7344 1249.0938,67.2813 1249.0938,66.8906 C1249.0938,66.4375 1248.7031,66.0469 1248.2344,66.0469 C1248.0156,66.0469 1247.8125,66.125 1247.625,66.3125 C1247.1719,66.7969 1247.1719,66.7969 1246.9844,66.8906 C1246.5625,67.1563 1245.875,67.2813 1245.1094,67.2813 C1243.0625,67.2813 1241.7656,66.1875 1241.7656,64.4844 L1241.7656,63.3906 C1241.7656,61.6094 1243.0156,60.2969 1244.75,60.2969 C1245.3281,60.2969 1245.9375,60.4531 1246.4063,60.7031 C1246.8906,60.9844 1247.0625,61.2031 1247.1563,61.6094 C1247.2188,62.0156 1247.25,62.1406 1247.3906,62.2656 C1247.5313,62.4063 1247.7656,62.5156 1247.9844,62.5156 C1248.25,62.5156 1248.5156,62.375 1248.6875,62.1563 C1248.7969,62 1248.8281,61.8125 1248.8281,61.3906 L1248.8281,59.9688 C1248.8281,59.5313 1248.8125,59.4063 1248.7188,59.25 C1248.5625,58.9844 1248.2813,58.8438 1247.9844,58.8438 C1247.6875,58.8438 1247.4844,58.9375 1247.2656,59.25 L1247.0938,59.1719 Z " fill="#000000"/><text fill="#000000" font-family="sans-serif" font-size="14" lengthAdjust="spacing" textLength="47" x="1265.25" y="68.3467">Devoir</text><line style="stroke:#181818;stroke-width:0.5;" x1="884.5" x2="1660.5" y1="79.5" y2="79.5"/><ellipse cx="894.5" cy="93.1484" fill="none" rx="3" ry="3" style="stroke:#038048;stroke-width:1.0;"/><text fill="#000000" font-family="sans-serif" font-size="14" lengthAdjust="spacing" textLength="109" x="903.5" y="96.4951">devoirId: string</text><ellipse cx="894.5" cy="109.4453" fill="none" rx="3" ry="3" style="stroke:#038048;stroke-width:1.0;"/><text fill="#000000" font-family="sans-serif" font-size="14" lengthAdjust="spacing" textLength="102" x="903.5" y="112.792">coursId: string</text><ellipse cx="894.5" cy="125.7422" fill="none" rx="3" ry="3" style="stroke:#038048;stroke-width:1.0;"/><text fill="#000000" font-family="sans-serif" font-size="14" lengthAdjust="spacing" textLength="133" x="903.5" y="129.0889">description: string</text><ellipse cx="894.5" cy="142.0391" fill="none" rx="3" ry="3" style="stroke:#038048;stroke-width:1.0;"/><text fill="#000000" font-family="sans-serif" font-size="14" lengthAdjust="spacing" textLength="83" x="903.5" y="145.3857">nom: string</text><ellipse cx="894.5" cy="158.3359" fill="none" rx="3" ry="3" style="stroke:#038048;stroke-width:1.0;"/><text fill="#000000" font-family="sans-serif" font-size="14" lengthAdjust="spacing" textLength="127" x="903.5" y="161.6826">noteMax: number</text><ellipse cx="894.5" cy="174.6328" fill="none" rx="3" ry="3" style="stroke:#038048;stroke-width:1.0;"/><text fill="#000000" font-family="sans-serif" font-size="14" lengthAdjust="spacing" textLength="122" x="903.5" y="177.9795">dateDebut: Date</text><ellipse cx="894.5" cy="190.9297" fill="none" rx="3" ry="3" style="stroke:#038048;stroke-width:1.0;"/><text fill="#000000" font-family="sans-serif" font-size="14" lengthAdjust="spacing" textLength="98" x="903.5" y="194.2764">dateFin: Date</text><ellipse cx="894.5" cy="207.2266" fill="none" rx="3" ry="3" style="stroke:#038048;stroke-width:1.0;"/><text fill="#000000" font-family="sans-serif" font-size="14" lengthAdjust="spacing" textLength="126" x="903.5" y="210.5732">isVisible: boolean</text><line style="stroke:#181818;stroke-width:0.5;" x1="884.5" x2="1660.5" y1="217.875" y2="217.875"/><ellipse cx="894.5" cy="231.5234" fill="#84BE84" rx="3" ry="3" style="stroke:#038048;stroke-width:1.0;"/><text fill="#000000" font-family="sans-serif" font-size="14" lengthAdjust="spacing" textLength="752" x="903.5" y="234.8701">modifierDevoir(nom: string, description: string, noteMax: number, dateDebut: Date, dateFin: Date): void</text><ellipse cx="894.5" cy="247.8203" fill="#84BE84" rx="3" ry="3" style="stroke:#038048;stroke-width:1.0;"/><text fill="#000000" font-family="sans-serif" font-size="14" lengthAdjust="spacing" textLength="699" x="903.5" y="251.167">toJSON(): { nom: string; description: string; noteMax: number; dateDebut: Date; dateFin: Date; }</text></g><!--class Etudiant--><g id="elem_Etudiant"><rect codeLine="24" fill="#F1F1F1" height="162.0781" id="Etudiant" rx="2.5" ry="2.5" style="stroke:#181818;stroke-width:0.5;" width="399" x="1697" y="72"/><ellipse cx="1861.75" cy="88" fill="#ADD1B2" rx="11" ry="11" style="stroke:#181818;stroke-width:1.0;"/><path d="M1864.0938,83.6719 C1863.1563,83.2344 1862.5625,83.0938 1861.6875,83.0938 C1859.0625,83.0938 1857.0625,85.1719 1857.0625,87.8906 L1857.0625,89.0156 C1857.0625,91.5938 1859.1719,93.4844 1862.0625,93.4844 C1863.2813,93.4844 1864.4375,93.1875 1865.1875,92.6406 C1865.7656,92.2344 1866.0938,91.7813 1866.0938,91.3906 C1866.0938,90.9375 1865.7031,90.5469 1865.2344,90.5469 C1865.0156,90.5469 1864.8125,90.625 1864.625,90.8125 C1864.1719,91.2969 1864.1719,91.2969 1863.9844,91.3906 C1863.5625,91.6563 1862.875,91.7813 1862.1094,91.7813 C1860.0625,91.7813 1858.7656,90.6875 1858.7656,88.9844 L1858.7656,87.8906 C1858.7656,86.1094 1860.0156,84.7969 1861.75,84.7969 C1862.3281,84.7969 1862.9375,84.9531 1863.4063,85.2031 C1863.8906,85.4844 1864.0625,85.7031 1864.1563,86.1094 C1864.2188,86.5156 1864.25,86.6406 1864.3906,86.7656 C1864.5313,86.9063 1864.7656,87.0156 1864.9844,87.0156 C1865.25,87.0156 1865.5156,86.875 1865.6875,86.6563 C1865.7969,86.5 1865.8281,86.3125 1865.8281,85.8906 L1865.8281,84.4688 C1865.8281,84.0313 1865.8125,83.9063 1865.7188,83.75 C1865.5625,83.4844 1865.2813,83.3438 1864.9844,83.3438 C1864.6875,83.3438 1864.4844,83.4375 1864.2656,83.75 L1864.0938,83.6719 Z " fill="#000000"/><text fill="#000000" font-family="sans-serif" font-size="14" lengthAdjust="spacing" textLength="61" x="1882.25" y="92.8467">Etudiant</text><line style="stroke:#181818;stroke-width:0.5;" x1="1698" x2="2095" y1="104" y2="104"/><rect fill="none" height="6" style="stroke:#C82930;stroke-width:1.0;" width="6" x="1705" y="114.6484"/><text fill="#000000" font-family="sans-serif" font-size="14" lengthAdjust="spacing" textLength="115" x="1717" y="120.9951">_prenom: string</text><rect fill="none" height="6" style="stroke:#C82930;stroke-width:1.0;" width="6" x="1705" y="130.9453"/><text fill="#000000" font-family="sans-serif" font-size="14" lengthAdjust="spacing" textLength="90" x="1717" y="137.292">_nom: string</text><rect fill="none" height="6" style="stroke:#C82930;stroke-width:1.0;" width="6" x="1705" y="147.2422"/><text fill="#000000" font-family="sans-serif" font-size="14" lengthAdjust="spacing" textLength="71" x="1717" y="153.5889">_id: string</text><ellipse cx="1708" cy="166.5391" fill="none" rx="3" ry="3" style="stroke:#038048;stroke-width:1.0;"/><text fill="#000000" font-family="sans-serif" font-size="14" lengthAdjust="spacing" textLength="108" x="1717" y="169.8857">prenom: string</text><ellipse cx="1708" cy="182.8359" fill="none" rx="3" ry="3" style="stroke:#038048;stroke-width:1.0;"/><text fill="#000000" font-family="sans-serif" font-size="14" lengthAdjust="spacing" textLength="83" x="1717" y="186.1826">nom: string</text><ellipse cx="1708" cy="199.1328" fill="none" rx="3" ry="3" style="stroke:#038048;stroke-width:1.0;"/><text fill="#000000" font-family="sans-serif" font-size="14" lengthAdjust="spacing" textLength="64" x="1717" y="202.4795">id: string</text><line style="stroke:#181818;stroke-width:0.5;" x1="1698" x2="2095" y1="209.7813" y2="209.7813"/><ellipse cx="1708" cy="223.4297" fill="#84BE84" rx="3" ry="3" style="stroke:#038048;stroke-width:1.0;"/><text fill="#000000" font-family="sans-serif" font-size="14" lengthAdjust="spacing" textLength="373" x="1717" y="226.7764">toJSON(): { prenom: string; nom: string; id: string; }</text></g><!--class question--><g id="elem_question"><rect codeLine="33" fill="#F1F1F1" height="129.4844" id="question" rx="2.5" ry="2.5" style="stroke:#181818;stroke-width:0.5;" width="519" x="5015" y="88.5"/><ellipse cx="5239.25" cy="104.5" fill="#ADD1B2" rx="11" ry="11" style="stroke:#181818;stroke-width:1.0;"/><path d="M5241.5938,100.1719 C5240.6563,99.7344 5240.0625,99.5938 5239.1875,99.5938 C5236.5625,99.5938 5234.5625,101.6719 5234.5625,104.3906 L5234.5625,105.5156 C5234.5625,108.0938 5236.6719,109.9844 5239.5625,109.9844 C5240.7813,109.9844 5241.9375,109.6875 5242.6875,109.1406 C5243.2656,108.7344 5243.5938,108.2813 5243.5938,107.8906 C5243.5938,107.4375 5243.2031,107.0469 5242.7344,107.0469 C5242.5156,107.0469 5242.3125,107.125 5242.125,107.3125 C5241.6719,107.7969 5241.6719,107.7969 5241.4844,107.8906 C5241.0625,108.1563 5240.375,108.2813 5239.6094,108.2813 C5237.5625,108.2813 5236.2656,107.1875 5236.2656,105.4844 L5236.2656,104.3906 C5236.2656,102.6094 5237.5156,101.2969 5239.25,101.2969 C5239.8281,101.2969 5240.4375,101.4531 5240.9063,101.7031 C5241.3906,101.9844 5241.5625,102.2031 5241.6563,102.6094 C5241.7188,103.0156 5241.75,103.1406 5241.8906,103.2656 C5242.0313,103.4063 5242.2656,103.5156 5242.4844,103.5156 C5242.75,103.5156 5243.0156,103.375 5243.1875,103.1563 C5243.2969,103 5243.3281,102.8125 5243.3281,102.3906 L5243.3281,100.9688 C5243.3281,100.5313 5243.3125,100.4063 5243.2188,100.25 C5243.0625,99.9844 5242.7813,99.8438 5242.4844,99.8438 C5242.1875,99.8438 5241.9844,99.9375 5241.7656,100.25 L5241.5938,100.1719 Z " fill="#000000"/><text fill="#000000" font-family="sans-serif" font-size="14" lengthAdjust="spacing" textLength="62" x="5259.75" y="109.3467">question</text><line style="stroke:#181818;stroke-width:0.5;" x1="5016" x2="5533" y1="120.5" y2="120.5"/><ellipse cx="5026" cy="134.1484" fill="none" rx="3" ry="3" style="stroke:#038048;stroke-width:1.0;"/><text fill="#000000" font-family="sans-serif" font-size="14" lengthAdjust="spacing" textLength="83" x="5035" y="137.4951">nom: string</text><ellipse cx="5026" cy="150.4453" fill="none" rx="3" ry="3" style="stroke:#038048;stroke-width:1.0;"/><text fill="#000000" font-family="sans-serif" font-size="14" lengthAdjust="spacing" textLength="104" x="5035" y="153.792">enonce: string</text><ellipse cx="5026" cy="166.7422" fill="none" rx="3" ry="3" style="stroke:#038048;stroke-width:1.0;"/><text fill="#000000" font-family="sans-serif" font-size="14" lengthAdjust="spacing" textLength="94" x="5035" y="170.0889">tags: String[]</text><ellipse cx="5026" cy="183.0391" fill="none" rx="3" ry="3" style="stroke:#038048;stroke-width:1.0;"/><text fill="#000000" font-family="sans-serif" font-size="14" lengthAdjust="spacing" textLength="85" x="5035" y="186.3857">type: string</text><line style="stroke:#181818;stroke-width:0.5;" x1="5016" x2="5533" y1="193.6875" y2="193.6875"/><ellipse cx="5026" cy="207.3359" fill="#84BE84" rx="3" ry="3" style="stroke:#038048;stroke-width:1.0;"/><text fill="#000000" font-family="sans-serif" font-size="14" lengthAdjust="spacing" textLength="493" x="5035" y="210.6826">toJSON(): { nom: string; enonce: string; tags: String[]; type: string; }</text></g><!--class Cours--><g id="elem_Cours"><rect codeLine="40" fill="#F1F1F1" height="292.4531" id="Cours" rx="2.5" ry="2.5" style="stroke:#181818;stroke-width:0.5;" width="819" x="2131" y="7"/><ellipse cx="2516.25" cy="23" fill="#ADD1B2" rx="11" ry="11" style="stroke:#181818;stroke-width:1.0;"/><path d="M2518.5938,18.6719 C2517.6563,18.2344 2517.0625,18.0938 2516.1875,18.0938 C2513.5625,18.0938 2511.5625,20.1719 2511.5625,22.8906 L2511.5625,24.0156 C2511.5625,26.5938 2513.6719,28.4844 2516.5625,28.4844 C2517.7813,28.4844 2518.9375,28.1875 2519.6875,27.6406 C2520.2656,27.2344 2520.5938,26.7813 2520.5938,26.3906 C2520.5938,25.9375 2520.2031,25.5469 2519.7344,25.5469 C2519.5156,25.5469 2519.3125,25.625 2519.125,25.8125 C2518.6719,26.2969 2518.6719,26.2969 2518.4844,26.3906 C2518.0625,26.6563 2517.375,26.7813 2516.6094,26.7813 C2514.5625,26.7813 2513.2656,25.6875 2513.2656,23.9844 L2513.2656,22.8906 C2513.2656,21.1094 2514.5156,19.7969 2516.25,19.7969 C2516.8281,19.7969 2517.4375,19.9531 2517.9063,20.2031 C2518.3906,20.4844 2518.5625,20.7031 2518.6563,21.1094 C2518.7188,21.5156 2518.75,21.6406 2518.8906,21.7656 C2519.0313,21.9063 2519.2656,22.0156 2519.4844,22.0156 C2519.75,22.0156 2520.0156,21.875 2520.1875,21.6563 C2520.2969,21.5 2520.3281,21.3125 2520.3281,20.8906 L2520.3281,19.4688 C2520.3281,19.0313 2520.3125,18.9063 2520.2188,18.75 C2520.0625,18.4844 2519.7813,18.3438 2519.4844,18.3438 C2519.1875,18.3438 2518.9844,18.4375 2518.7656,18.75 L2518.5938,18.6719 Z " fill="#000000"/><text fill="#000000" font-family="sans-serif" font-size="14" lengthAdjust="spacing" textLength="40" x="2536.75" y="27.8467">Cours</text><line style="stroke:#181818;stroke-width:0.5;" x1="2132" x2="2949" y1="39" y2="39"/><rect fill="none" height="6" style="stroke:#C82930;stroke-width:1.0;" width="6" x="2139" y="49.6484"/><text fill="#000000" font-family="sans-serif" font-size="14" lengthAdjust="spacing" textLength="71" x="2151" y="55.9951">_id: string</text><rect fill="none" height="6" style="stroke:#C82930;stroke-width:1.0;" width="6" x="2139" y="65.9453"/><text fill="#000000" font-family="sans-serif" font-size="14" lengthAdjust="spacing" textLength="91" x="2151" y="72.292">_titre: string</text><rect fill="none" height="6" style="stroke:#C82930;stroke-width:1.0;" width="6" x="2139" y="82.2422"/><text fill="#000000" font-family="sans-serif" font-size="14" lengthAdjust="spacing" textLength="91" x="2151" y="88.5889">_sigle: string</text><ellipse cx="2142" cy="101.5391" fill="none" rx="3" ry="3" style="stroke:#038048;stroke-width:1.0;"/><text fill="#000000" font-family="sans-serif" font-size="14" lengthAdjust="spacing" textLength="179" x="2151" y="104.8857">_listeEtudiant: Etudiant[]</text><ellipse cx="2142" cy="117.8359" fill="none" rx="3" ry="3" style="stroke:#038048;stroke-width:1.0;"/><text fill="#000000" font-family="sans-serif" font-size="14" lengthAdjust="spacing" textLength="158" x="2151" y="121.1826">_listeDevoirs: Devoir[]</text><ellipse cx="2142" cy="134.1328" fill="none" rx="3" ry="3" style="stroke:#038048;stroke-width:1.0;"/><text fill="#000000" font-family="sans-serif" font-size="14" lengthAdjust="spacing" textLength="190" x="2151" y="137.4795">_listeQuestions: question[]</text><ellipse cx="2142" cy="150.4297" fill="none" rx="3" ry="3" style="stroke:#038048;stroke-width:1.0;"/><text fill="#000000" font-family="sans-serif" font-size="14" lengthAdjust="spacing" textLength="64" x="2151" y="153.7764">id: string</text><ellipse cx="2142" cy="166.7266" fill="none" rx="3" ry="3" style="stroke:#038048;stroke-width:1.0;"/><text fill="#000000" font-family="sans-serif" font-size="14" lengthAdjust="spacing" textLength="84" x="2151" y="170.0732">titre: string</text><ellipse cx="2142" cy="183.0234" fill="none" rx="3" ry="3" style="stroke:#038048;stroke-width:1.0;"/><text fill="#000000" font-family="sans-serif" font-size="14" lengthAdjust="spacing" textLength="84" x="2151" y="186.3701">sigle: string</text><ellipse cx="2142" cy="199.3203" fill="none" rx="3" ry="3" style="stroke:#038048;stroke-width:1.0;"/><text fill="#000000" font-family="sans-serif" font-size="14" lengthAdjust="spacing" textLength="172" x="2151" y="202.667">listeEtudiant: Etudiant[]</text><ellipse cx="2142" cy="215.6172" fill="none" rx="3" ry="3" style="stroke:#038048;stroke-width:1.0;"/><text fill="#000000" font-family="sans-serif" font-size="14" lengthAdjust="spacing" textLength="151" x="2151" y="218.9639">listeDevoirs: Devoir[]</text><ellipse cx="2142" cy="231.9141" fill="none" rx="3" ry="3" style="stroke:#038048;stroke-width:1.0;"/><text fill="#000000" font-family="sans-serif" font-size="14" lengthAdjust="spacing" textLength="183" x="2151" y="235.2607">listeQuestions: question[]</text><line style="stroke:#181818;stroke-width:0.5;" x1="2132" x2="2949" y1="242.5625" y2="242.5625"/><ellipse cx="2142" cy="256.2109" fill="#84BE84" rx="3" ry="3" style="stroke:#038048;stroke-width:1.0;"/><text fill="#000000" font-family="sans-serif" font-size="14" lengthAdjust="spacing" textLength="742" x="2151" y="259.5576">ajouterDevoir(nom: string, description: string, noteMax: number, dateDebut: Date, dateFin: Date): void</text><ellipse cx="2142" cy="272.5078" fill="#84BE84" rx="3" ry="3" style="stroke:#038048;stroke-width:1.0;"/><text fill="#000000" font-family="sans-serif" font-size="14" lengthAdjust="spacing" textLength="307" x="2151" y="275.8545">chercherDevoir(nomDevoir: string): Devoir</text><ellipse cx="2142" cy="288.8047" fill="#84BE84" rx="3" ry="3" style="stroke:#038048;stroke-width:1.0;"/><text fill="#000000" font-family="sans-serif" font-size="14" lengthAdjust="spacing" textLength="793" x="2151" y="292.1514">toJSON(): { id: string; titre: string; sigle: string; etudiants: Etudiant[]; devoirs: Devoir[]; questions: question[]; }</text></g><!--class default--><g id="elem_default"><rect codeLine="57" fill="#F1F1F1" height="64.2969" id="default" rx="2.5" ry="2.5" style="stroke:#181818;stroke-width:0.5;" width="126" x="7738.5" y="481.5"/><ellipse cx="7773.3" cy="497.5" fill="#A9DCDF" rx="11" ry="11" style="stroke:#181818;stroke-width:1.0;"/><path d="M7775.3781,499.3125 L7775.7688,500.2969 L7775.3781,500.2969 C7774.925,500.2969 7774.8156,500.3125 7774.6594,500.4219 C7774.4094,500.5781 7774.2531,500.8594 7774.2531,501.1563 C7774.2531,501.4219 7774.3938,501.6719 7774.6125,501.8281 C7774.7531,501.9531 7774.9563,502 7775.3781,502 L7777.7375,502 C7778.0969,502 7778.3156,501.9688 7778.4563,501.875 C7778.7063,501.7344 7778.8625,501.4375 7778.8625,501.1563 C7778.8625,500.875 7778.7219,500.625 7778.5031,500.4688 C7778.3313,500.3281 7778.175,500.2969 7777.7063,500.2969 L7774.3156,492.0938 L7770.6438,492.0938 C7770.1906,492.0938 7770.0656,492.1094 7769.9094,492.2031 C7769.6594,492.375 7769.5031,492.6563 7769.5031,492.9375 C7769.5031,493.2188 7769.6438,493.4688 7769.8625,493.6406 C7770.0344,493.75 7770.2063,493.7813 7770.6438,493.7813 L7771.7219,493.7813 L7769.0813,500.2969 C7768.6594,500.2969 7768.5031,500.3125 7768.3469,500.4219 C7768.0969,500.5781 7767.9406,500.8594 7767.9406,501.1563 C7767.9406,501.7188 7768.3156,502 7769.0656,502 L7771.3313,502 C7771.6906,502 7771.9094,501.9688 7772.0344,501.875 C7772.3,501.7344 7772.4406,501.4375 7772.4406,501.1563 C7772.4406,500.875 7772.3156,500.625 7772.0969,500.4531 C7771.925,500.3281 7771.7844,500.2969 7771.3313,500.2969 L7770.9406,500.2969 L7771.3313,499.3125 L7775.3781,499.3125 Z M7774.675,497.6094 L7772.0031,497.6094 L7773.3469,494.3438 L7774.675,497.6094 Z " fill="#000000"/><text fill="#000000" font-family="sans-serif" font-size="14" font-style="italic" lengthAdjust="spacing" textLength="50" x="7791.7" y="502.3467">default</text><line style="stroke:#181818;stroke-width:0.5;" x1="7739.5" x2="7863.5" y1="513.5" y2="513.5"/><ellipse cx="7749.5" cy="527.1484" fill="none" rx="3" ry="3" style="stroke:#038048;stroke-width:1.0;"/><text fill="#000000" font-family="sans-serif" font-size="14" font-style="italic" lengthAdjust="spacing" textLength="100" x="7758.5" y="530.4951">code: number</text><line style="stroke:#181818;stroke-width:0.5;" x1="7739.5" x2="7863.5" y1="537.7969" y2="537.7969"/></g><!--class Error--><g id="elem_Error"><rect fill="#F1F1F1" height="48" id="Error" rx="2.5" ry="2.5" style="stroke:#181818;stroke-width:0.5;" width="68" x="7767.5" y="129"/><ellipse cx="7782.5" cy="145" fill="#ADD1B2" rx="11" ry="11" style="stroke:#181818;stroke-width:1.0;"/><path d="M7784.8438,140.6719 C7783.9063,140.2344 7783.3125,140.0938 7782.4375,140.0938 C7779.8125,140.0938 7777.8125,142.1719 7777.8125,144.8906 L7777.8125,146.0156 C7777.8125,148.5938 7779.9219,150.4844 7782.8125,150.4844 C7784.0313,150.4844 7785.1875,150.1875 7785.9375,149.6406 C7786.5156,149.2344 7786.8438,148.7813 7786.8438,148.3906 C7786.8438,147.9375 7786.4531,147.5469 7785.9844,147.5469 C7785.7656,147.5469 7785.5625,147.625 7785.375,147.8125 C7784.9219,148.2969 7784.9219,148.2969 7784.7344,148.3906 C7784.3125,148.6563 7783.625,148.7813 7782.8594,148.7813 C7780.8125,148.7813 7779.5156,147.6875 7779.5156,145.9844 L7779.5156,144.8906 C7779.5156,143.1094 7780.7656,141.7969 7782.5,141.7969 C7783.0781,141.7969 7783.6875,141.9531 7784.1563,142.2031 C7784.6406,142.4844 7784.8125,142.7031 7784.9063,143.1094 C7784.9688,143.5156 7785,143.6406 7785.1406,143.7656 C7785.2813,143.9063 7785.5156,144.0156 7785.7344,144.0156 C7786,144.0156 7786.2656,143.875 7786.4375,143.6563 C7786.5469,143.5 7786.5781,143.3125 7786.5781,142.8906 L7786.5781,141.4688 C7786.5781,141.0313 7786.5625,140.9063 7786.4688,140.75 C7786.3125,140.4844 7786.0313,140.3438 7785.7344,140.3438 C7785.4375,140.3438 7785.2344,140.4375 7785.0156,140.75 L7784.8438,140.6719 Z " fill="#000000"/><text fill="#000000" font-family="sans-serif" font-size="14" lengthAdjust="spacing" textLength="36" x="7796.5" y="149.8467">Error</text><line style="stroke:#181818;stroke-width:0.5;" x1="7768.5" x2="7834.5" y1="161" y2="161"/><line style="stroke:#181818;stroke-width:0.5;" x1="7768.5" x2="7834.5" y1="169" y2="169"/></g><!--class InvalidParameterError--><g id="elem_InvalidParameterError"><rect codeLine="60" fill="#F1F1F1" height="64.2969" id="InvalidParameterError" rx="2.5" ry="2.5" style="stroke:#181818;stroke-width:0.5;" width="190" x="7899.5" y="481.5"/><ellipse cx="7914.5" cy="497.5" fill="#ADD1B2" rx="11" ry="11" style="stroke:#181818;stroke-width:1.0;"/><path d="M7916.8438,493.1719 C7915.9063,492.7344 7915.3125,492.5938 7914.4375,492.5938 C7911.8125,492.5938 7909.8125,494.6719 7909.8125,497.3906 L7909.8125,498.5156 C7909.8125,501.0938 7911.9219,502.9844 7914.8125,502.9844 C7916.0313,502.9844 7917.1875,502.6875 7917.9375,502.1406 C7918.5156,501.7344 7918.8438,501.2813 7918.8438,500.8906 C7918.8438,500.4375 7918.4531,500.0469 7917.9844,500.0469 C7917.7656,500.0469 7917.5625,500.125 7917.375,500.3125 C7916.9219,500.7969 7916.9219,500.7969 7916.7344,500.8906 C7916.3125,501.1563 7915.625,501.2813 7914.8594,501.2813 C7912.8125,501.2813 7911.5156,500.1875 7911.5156,498.4844 L7911.5156,497.3906 C7911.5156,495.6094 7912.7656,494.2969 7914.5,494.2969 C7915.0781,494.2969 7915.6875,494.4531 7916.1563,494.7031 C7916.6406,494.9844 7916.8125,495.2031 7916.9063,495.6094 C7916.9688,496.0156 7917,496.1406 7917.1406,496.2656 C7917.2813,496.4063 7917.5156,496.5156 7917.7344,496.5156 C7918,496.5156 7918.2656,496.375 7918.4375,496.1563 C7918.5469,496 7918.5781,495.8125 7918.5781,495.3906 L7918.5781,493.9688 C7918.5781,493.5313 7918.5625,493.4063 7918.4688,493.25 C7918.3125,492.9844 7918.0313,492.8438 7917.7344,492.8438 C7917.4375,492.8438 7917.2344,492.9375 7917.0156,493.25 L7916.8438,493.1719 Z " fill="#000000"/><text fill="#000000" font-family="sans-serif" font-size="14" lengthAdjust="spacing" textLength="158" x="7928.5" y="502.3467">InvalidParameterError</text><line style="stroke:#181818;stroke-width:0.5;" x1="7900.5" x2="8088.5" y1="513.5" y2="513.5"/><ellipse cx="7910.5" cy="527.1484" fill="none" rx="3" ry="3" style="stroke:#038048;stroke-width:1.0;"/><text fill="#000000" font-family="sans-serif" font-size="14" lengthAdjust="spacing" textLength="70" x="7919.5" y="530.4951">code: 400</text><line style="stroke:#181818;stroke-width:0.5;" x1="7900.5" x2="8088.5" y1="537.7969" y2="537.7969"/></g><!--class AbstractError--><g id="elem_AbstractError"><rect fill="#F1F1F1" height="48" id="AbstractError" rx="2.5" ry="2.5" style="stroke:#181818;stroke-width:0.5;" width="131" x="7929" y="129"/><ellipse cx="7944" cy="145" fill="#ADD1B2" rx="11" ry="11" style="stroke:#181818;stroke-width:1.0;"/><path d="M7946.3438,140.6719 C7945.4063,140.2344 7944.8125,140.0938 7943.9375,140.0938 C7941.3125,140.0938 7939.3125,142.1719 7939.3125,144.8906 L7939.3125,146.0156 C7939.3125,148.5938 7941.4219,150.4844 7944.3125,150.4844 C7945.5313,150.4844 7946.6875,150.1875 7947.4375,149.6406 C7948.0156,149.2344 7948.3438,148.7813 7948.3438,148.3906 C7948.3438,147.9375 7947.9531,147.5469 7947.4844,147.5469 C7947.2656,147.5469 7947.0625,147.625 7946.875,147.8125 C7946.4219,148.2969 7946.4219,148.2969 7946.2344,148.3906 C7945.8125,148.6563 7945.125,148.7813 7944.3594,148.7813 C7942.3125,148.7813 7941.0156,147.6875 7941.0156,145.9844 L7941.0156,144.8906 C7941.0156,143.1094 7942.2656,141.7969 7944,141.7969 C7944.5781,141.7969 7945.1875,141.9531 7945.6563,142.2031 C7946.1406,142.4844 7946.3125,142.7031 7946.4063,143.1094 C7946.4688,143.5156 7946.5,143.6406 7946.6406,143.7656 C7946.7813,143.9063 7947.0156,144.0156 7947.2344,144.0156 C7947.5,144.0156 7947.7656,143.875 7947.9375,143.6563 C7948.0469,143.5 7948.0781,143.3125 7948.0781,142.8906 L7948.0781,141.4688 C7948.0781,141.0313 7948.0625,140.9063 7947.9688,140.75 C7947.8125,140.4844 7947.5313,140.3438 7947.2344,140.3438 C7946.9375,140.3438 7946.7344,140.4375 7946.5156,140.75 L7946.3438,140.6719 Z " fill="#000000"/><text fill="#000000" font-family="sans-serif" font-size="14" lengthAdjust="spacing" textLength="99" x="7958" y="149.8467">AbstractError</text><line style="stroke:#181818;stroke-width:0.5;" x1="7930" x2="8059" y1="161" y2="161"/><line style="stroke:#181818;stroke-width:0.5;" x1="7930" x2="8059" y1="169" y2="169"/></g><!--class Enseignant--><g id="elem_Enseignant"><rect codeLine="63" fill="#F1F1F1" height="308.75" id="Enseignant" rx="2.5" ry="2.5" style="stroke:#181818;stroke-width:0.5;" width="425" x="476" y="359"/><ellipse cx="644.25" cy="375" fill="#ADD1B2" rx="11" ry="11" style="stroke:#181818;stroke-width:1.0;"/><path d="M646.5938,370.6719 C645.6563,370.2344 645.0625,370.0938 644.1875,370.0938 C641.5625,370.0938 639.5625,372.1719 639.5625,374.8906 L639.5625,376.0156 C639.5625,378.5938 641.6719,380.4844 644.5625,380.4844 C645.7813,380.4844 646.9375,380.1875 647.6875,379.6406 C648.2656,379.2344 648.5938,378.7813 648.5938,378.3906 C648.5938,377.9375 648.2031,377.5469 647.7344,377.5469 C647.5156,377.5469 647.3125,377.625 647.125,377.8125 C646.6719,378.2969 646.6719,378.2969 646.4844,378.3906 C646.0625,378.6563 645.375,378.7813 644.6094,378.7813 C642.5625,378.7813 641.2656,377.6875 641.2656,375.9844 L641.2656,374.8906 C641.2656,373.1094 642.5156,371.7969 644.25,371.7969 C644.8281,371.7969 645.4375,371.9531 645.9063,372.2031 C646.3906,372.4844 646.5625,372.7031 646.6563,373.1094 C646.7188,373.5156 646.75,373.6406 646.8906,373.7656 C647.0313,373.9063 647.2656,374.0156 647.4844,374.0156 C647.75,374.0156 648.0156,373.875 648.1875,373.6563 C648.2969,373.5 648.3281,373.3125 648.3281,372.8906 L648.3281,371.4688 C648.3281,371.0313 648.3125,370.9063 648.2188,370.75 C648.0625,370.4844 647.7813,370.3438 647.4844,370.3438 C647.1875,370.3438 646.9844,370.4375 646.7656,370.75 L646.5938,370.6719 Z " fill="#000000"/><text fill="#000000" font-family="sans-serif" font-size="14" lengthAdjust="spacing" textLength="80" x="664.75" y="379.8467">Enseignant</text><line style="stroke:#181818;stroke-width:0.5;" x1="477" x2="900" y1="391" y2="391"/><rect fill="none" height="6" style="stroke:#C82930;stroke-width:1.0;" width="6" x="484" y="401.6484"/><text fill="#000000" font-family="sans-serif" font-size="14" lengthAdjust="spacing" textLength="115" x="496" y="407.9951">_prenom: string</text><rect fill="none" height="6" style="stroke:#C82930;stroke-width:1.0;" width="6" x="484" y="417.9453"/><text fill="#000000" font-family="sans-serif" font-size="14" lengthAdjust="spacing" textLength="90" x="496" y="424.292">_nom: string</text><rect fill="none" height="6" style="stroke:#C82930;stroke-width:1.0;" width="6" x="484" y="434.2422"/><text fill="#000000" font-family="sans-serif" font-size="14" lengthAdjust="spacing" textLength="97" x="496" y="440.5889">_email: string</text><rect fill="none" height="6" style="stroke:#C82930;stroke-width:1.0;" width="6" x="484" y="450.5391"/><text fill="#000000" font-family="sans-serif" font-size="14" lengthAdjust="spacing" textLength="101" x="496" y="456.8857">_token: string</text><rect fill="none" height="6" style="stroke:#C82930;stroke-width:1.0;" width="6" x="484" y="466.8359"/><text fill="#000000" font-family="sans-serif" font-size="14" lengthAdjust="spacing" textLength="104" x="496" y="473.1826">_cours: Cours[]</text><ellipse cx="487" cy="486.1328" fill="none" rx="3" ry="3" style="stroke:#038048;stroke-width:1.0;"/><text fill="#000000" font-family="sans-serif" font-size="14" lengthAdjust="spacing" textLength="108" x="496" y="489.4795">prenom: string</text><ellipse cx="487" cy="502.4297" fill="none" rx="3" ry="3" style="stroke:#038048;stroke-width:1.0;"/><text fill="#000000" font-family="sans-serif" font-size="14" lengthAdjust="spacing" textLength="83" x="496" y="505.7764">nom: string</text><ellipse cx="487" cy="518.7266" fill="none" rx="3" ry="3" style="stroke:#038048;stroke-width:1.0;"/><text fill="#000000" font-family="sans-serif" font-size="14" lengthAdjust="spacing" textLength="90" x="496" y="522.0732">email: string</text><ellipse cx="487" cy="535.0234" fill="none" rx="3" ry="3" style="stroke:#038048;stroke-width:1.0;"/><text fill="#000000" font-family="sans-serif" font-size="14" lengthAdjust="spacing" textLength="94" x="496" y="538.3701">token: string</text><ellipse cx="487" cy="551.3203" fill="none" rx="3" ry="3" style="stroke:#038048;stroke-width:1.0;"/><text fill="#000000" font-family="sans-serif" font-size="14" lengthAdjust="spacing" textLength="97" x="496" y="554.667">cours: Cours[]</text><line style="stroke:#181818;stroke-width:0.5;" x1="477" x2="900" y1="561.9688" y2="561.9688"/><ellipse cx="487" cy="575.6172" fill="#84BE84" rx="3" ry="3" style="stroke:#038048;stroke-width:1.0;"/><text fill="#000000" font-family="sans-serif" font-size="14" lengthAdjust="spacing" textLength="247" x="496" y="578.9639">chercherCours(sigle: string): Cours</text><ellipse cx="487" cy="591.9141" fill="#84BE84" rx="3" ry="3" style="stroke:#038048;stroke-width:1.0;"/><text fill="#000000" font-family="sans-serif" font-size="14" lengthAdjust="spacing" textLength="241" x="496" y="595.2607">ajouterCours(cours: string): string</text><ellipse cx="487" cy="608.2109" fill="#84BE84" rx="3" ry="3" style="stroke:#038048;stroke-width:1.0;"/><text fill="#000000" font-family="sans-serif" font-size="14" lengthAdjust="spacing" textLength="252" x="496" y="611.5576">supprimerCours(cours: string): void</text><ellipse cx="487" cy="624.5078" fill="#84BE84" rx="3" ry="3" style="stroke:#038048;stroke-width:1.0;"/><text fill="#000000" font-family="sans-serif" font-size="14" lengthAdjust="spacing" textLength="364" x="496" y="627.8545">creationEtudiant(listeEtudiant: string[]): Etudiant[]</text><ellipse cx="487" cy="640.8047" fill="#84BE84" rx="3" ry="3" style="stroke:#038048;stroke-width:1.0;"/><text fill="#000000" font-family="sans-serif" font-size="14" lengthAdjust="spacing" textLength="271" x="496" y="644.1514">getDetailCours(idCours: string): Cours</text><ellipse cx="487" cy="657.1016" fill="#84BE84" rx="3" ry="3" style="stroke:#038048;stroke-width:1.0;"/><text fill="#000000" font-family="sans-serif" font-size="14" lengthAdjust="spacing" textLength="399" x="496" y="660.4482">toJSON(): { prenom: string; nom: string; email: string; }</text></g><!--class signinRouter--><g id="elem_signinRouter"><rect codeLine="81" fill="#F1F1F1" height="129.4844" id="signinRouter" rx="2.5" ry="2.5" style="stroke:#181818;stroke-width:0.5;" width="1282" x="936.5" y="449"/><ellipse cx="1527.75" cy="465" fill="#ADD1B2" rx="11" ry="11" style="stroke:#181818;stroke-width:1.0;"/><path d="M1530.0938,460.6719 C1529.1563,460.2344 1528.5625,460.0938 1527.6875,460.0938 C1525.0625,460.0938 1523.0625,462.1719 1523.0625,464.8906 L1523.0625,466.0156 C1523.0625,468.5938 1525.1719,470.4844 1528.0625,470.4844 C1529.2813,470.4844 1530.4375,470.1875 1531.1875,469.6406 C1531.7656,469.2344 1532.0938,468.7813 1532.0938,468.3906 C1532.0938,467.9375 1531.7031,467.5469 1531.2344,467.5469 C1531.0156,467.5469 1530.8125,467.625 1530.625,467.8125 C1530.1719,468.2969 1530.1719,468.2969 1529.9844,468.3906 C1529.5625,468.6563 1528.875,468.7813 1528.1094,468.7813 C1526.0625,468.7813 1524.7656,467.6875 1524.7656,465.9844 L1524.7656,464.8906 C1524.7656,463.1094 1526.0156,461.7969 1527.75,461.7969 C1528.3281,461.7969 1528.9375,461.9531 1529.4063,462.2031 C1529.8906,462.4844 1530.0625,462.7031 1530.1563,463.1094 C1530.2188,463.5156 1530.25,463.6406 1530.3906,463.7656 C1530.5313,463.9063 1530.7656,464.0156 1530.9844,464.0156 C1531.25,464.0156 1531.5156,463.875 1531.6875,463.6563 C1531.7969,463.5 1531.8281,463.3125 1531.8281,462.8906 L1531.8281,461.4688 C1531.8281,461.0313 1531.8125,460.9063 1531.7188,460.75 C1531.5625,460.4844 1531.2813,460.3438 1530.9844,460.3438 C1530.6875,460.3438 1530.4844,460.4375 1530.2656,460.75 L1530.0938,460.6719 Z " fill="#000000"/><text fill="#000000" font-family="sans-serif" font-size="14" lengthAdjust="spacing" textLength="91" x="1548.25" y="469.8467">signinRouter</text><line style="stroke:#181818;stroke-width:0.5;" x1="937.5" x2="2217.5" y1="481" y2="481"/><rect fill="none" height="6" style="stroke:#C82930;stroke-width:1.0;" width="6" x="944.5" y="491.6484"/><text fill="#000000" font-family="sans-serif" font-size="14" lengthAdjust="spacing" textLength="110" x="956.5" y="497.9951">_router: Router</text><ellipse cx="947.5" cy="510.9453" fill="none" rx="3" ry="3" style="stroke:#038048;stroke-width:1.0;"/><text fill="#000000" font-family="sans-serif" font-size="14" lengthAdjust="spacing" textLength="103" x="956.5" y="514.292">router: Router</text><line style="stroke:#181818;stroke-width:0.5;" x1="937.5" x2="2217.5" y1="521.5938" y2="521.5938"/><ellipse cx="947.5" cy="535.2422" fill="#84BE84" rx="3" ry="3" style="stroke:#038048;stroke-width:1.0;"/><text fill="#000000" font-family="sans-serif" font-size="14" lengthAdjust="spacing" textLength="1256" x="956.5" y="538.5889">signin(req: Request&lt;ParamsDictionary, any, any, QueryString.ParsedQs, Record&lt;string, any&gt;&gt;, res: Response&lt;any, Record&lt;string, any&gt;&gt;, next: NextFunction): Promise&lt;void&gt;</text><rect fill="#F24D5C" height="6" style="stroke:#C82930;stroke-width:1.0;" width="6" x="944.5" y="548.5391"/><text fill="#000000" font-family="sans-serif" font-size="14" lengthAdjust="spacing" textLength="1173" x="956.5" y="554.8857">_errorCode500(error: any, req: Request&lt;ParamsDictionary, any, any, QueryString.ParsedQs, Record&lt;string, any&gt;&gt;, res: Response&lt;any, Record&lt;string, any&gt;&gt;): void</text><ellipse cx="947.5" cy="567.8359" fill="#84BE84" rx="3" ry="3" style="stroke:#038048;stroke-width:1.0;"/><text fill="#000000" font-family="sans-serif" font-size="14" lengthAdjust="spacing" textLength="73" x="956.5" y="571.1826">init(): void</text></g><!--class ControleurCours--><g id="elem_ControleurCours"><rect codeLine="88" fill="#F1F1F1" height="194.6719" id="ControleurCours" rx="2.5" ry="2.5" style="stroke:#181818;stroke-width:0.5;" width="390" x="2253.5" y="416"/><ellipse cx="2385.75" cy="432" fill="#ADD1B2" rx="11" ry="11" style="stroke:#181818;stroke-width:1.0;"/><path d="M2388.0938,427.6719 C2387.1563,427.2344 2386.5625,427.0938 2385.6875,427.0938 C2383.0625,427.0938 2381.0625,429.1719 2381.0625,431.8906 L2381.0625,433.0156 C2381.0625,435.5938 2383.1719,437.4844 2386.0625,437.4844 C2387.2813,437.4844 2388.4375,437.1875 2389.1875,436.6406 C2389.7656,436.2344 2390.0938,435.7813 2390.0938,435.3906 C2390.0938,434.9375 2389.7031,434.5469 2389.2344,434.5469 C2389.0156,434.5469 2388.8125,434.625 2388.625,434.8125 C2388.1719,435.2969 2388.1719,435.2969 2387.9844,435.3906 C2387.5625,435.6563 2386.875,435.7813 2386.1094,435.7813 C2384.0625,435.7813 2382.7656,434.6875 2382.7656,432.9844 L2382.7656,431.8906 C2382.7656,430.1094 2384.0156,428.7969 2385.75,428.7969 C2386.3281,428.7969 2386.9375,428.9531 2387.4063,429.2031 C2387.8906,429.4844 2388.0625,429.7031 2388.1563,430.1094 C2388.2188,430.5156 2388.25,430.6406 2388.3906,430.7656 C2388.5313,430.9063 2388.7656,431.0156 2388.9844,431.0156 C2389.25,431.0156 2389.5156,430.875 2389.6875,430.6563 C2389.7969,430.5 2389.8281,430.3125 2389.8281,429.8906 L2389.8281,428.4688 C2389.8281,428.0313 2389.8125,427.9063 2389.7188,427.75 C2389.5625,427.4844 2389.2813,427.3438 2388.9844,427.3438 C2388.6875,427.3438 2388.4844,427.4375 2388.2656,427.75 L2388.0938,427.6719 Z " fill="#000000"/><text fill="#000000" font-family="sans-serif" font-size="14" lengthAdjust="spacing" textLength="117" x="2406.25" y="436.8467">ControleurCours</text><line style="stroke:#181818;stroke-width:0.5;" x1="2254.5" x2="2642.5" y1="448" y2="448"/><rect fill="none" height="6" style="stroke:#C82930;stroke-width:1.0;" width="6" x="2261.5" y="458.6484"/><text fill="#000000" font-family="sans-serif" font-size="14" lengthAdjust="spacing" textLength="169" x="2273.5" y="464.9951">enseignant: Enseignant</text><rect fill="none" height="6" style="stroke:#C82930;stroke-width:1.0;" width="6" x="2261.5" y="474.9453"/><text fill="#000000" font-family="sans-serif" font-size="14" lengthAdjust="spacing" textLength="242" x="2273.5" y="481.292">_coursesMap: Map&lt;string, Cours&gt;</text><ellipse cx="2264.5" cy="494.2422" fill="none" rx="3" ry="3" style="stroke:#038048;stroke-width:1.0;"/><text fill="#000000" font-family="sans-serif" font-size="14" lengthAdjust="spacing" textLength="102" x="2273.5" y="497.5889">list: Etudiant[]</text><line style="stroke:#181818;stroke-width:0.5;" x1="2254.5" x2="2642.5" y1="504.8906" y2="504.8906"/><ellipse cx="2264.5" cy="518.5391" fill="#84BE84" rx="3" ry="3" style="stroke:#038048;stroke-width:1.0;"/><text fill="#000000" font-family="sans-serif" font-size="14" lengthAdjust="spacing" textLength="257" x="2273.5" y="521.8857">ajouterCours(cours: string): boolean</text><ellipse cx="2264.5" cy="534.8359" fill="#84BE84" rx="3" ry="3" style="stroke:#038048;stroke-width:1.0;"/><text fill="#000000" font-family="sans-serif" font-size="14" lengthAdjust="spacing" textLength="283" x="2273.5" y="538.1826">coursDejaAjoute(cours: string): boolean</text><ellipse cx="2264.5" cy="551.1328" fill="#84BE84" rx="3" ry="3" style="stroke:#038048;stroke-width:1.0;"/><text fill="#000000" font-family="sans-serif" font-size="14" lengthAdjust="spacing" textLength="364" x="2273.5" y="554.4795">creationEtudiant(listeEtudiant: string[]): Etudiant[]</text><ellipse cx="2264.5" cy="567.4297" fill="#84BE84" rx="3" ry="3" style="stroke:#038048;stroke-width:1.0;"/><text fill="#000000" font-family="sans-serif" font-size="14" lengthAdjust="spacing" textLength="271" x="2273.5" y="570.7764">getDetailCours(idCours: string): Cours</text><ellipse cx="2264.5" cy="583.7266" fill="#84BE84" rx="3" ry="3" style="stroke:#038048;stroke-width:1.0;"/><text fill="#000000" font-family="sans-serif" font-size="14" lengthAdjust="spacing" textLength="134" x="2273.5" y="587.0732">getCours(): Cours[]</text><ellipse cx="2264.5" cy="600.0234" fill="#84BE84" rx="3" ry="3" style="stroke:#038048;stroke-width:1.0;"/><text fill="#000000" font-family="sans-serif" font-size="14" lengthAdjust="spacing" textLength="271" x="2273.5" y="603.3701">displayCourse(courseId: string): string</text></g><!--class UserController--><g id="elem_UserController"><rect codeLine="99" fill="#F1F1F1" height="80.5938" id="UserController" rx="2.5" ry="2.5" style="stroke:#181818;stroke-width:0.5;" width="305" x="2679" y="473"/><ellipse cx="2775.25" cy="489" fill="#ADD1B2" rx="11" ry="11" style="stroke:#181818;stroke-width:1.0;"/><path d="M2777.5938,484.6719 C2776.6563,484.2344 2776.0625,484.0938 2775.1875,484.0938 C2772.5625,484.0938 2770.5625,486.1719 2770.5625,488.8906 L2770.5625,490.0156 C2770.5625,492.5938 2772.6719,494.4844 2775.5625,494.4844 C2776.7813,494.4844 2777.9375,494.1875 2778.6875,493.6406 C2779.2656,493.2344 2779.5938,492.7813 2779.5938,492.3906 C2779.5938,491.9375 2779.2031,491.5469 2778.7344,491.5469 C2778.5156,491.5469 2778.3125,491.625 2778.125,491.8125 C2777.6719,492.2969 2777.6719,492.2969 2777.4844,492.3906 C2777.0625,492.6563 2776.375,492.7813 2775.6094,492.7813 C2773.5625,492.7813 2772.2656,491.6875 2772.2656,489.9844 L2772.2656,488.8906 C2772.2656,487.1094 2773.5156,485.7969 2775.25,485.7969 C2775.8281,485.7969 2776.4375,485.9531 2776.9063,486.2031 C2777.3906,486.4844 2777.5625,486.7031 2777.6563,487.1094 C2777.7188,487.5156 2777.75,487.6406 2777.8906,487.7656 C2778.0313,487.9063 2778.2656,488.0156 2778.4844,488.0156 C2778.75,488.0156 2779.0156,487.875 2779.1875,487.6563 C2779.2969,487.5 2779.3281,487.3125 2779.3281,486.8906 L2779.3281,485.4688 C2779.3281,485.0313 2779.3125,484.9063 2779.2188,484.75 C2779.0625,484.4844 2778.7813,484.3438 2778.4844,484.3438 C2778.1875,484.3438 2777.9844,484.4375 2777.7656,484.75 L2777.5938,484.6719 Z " fill="#000000"/><text fill="#000000" font-family="sans-serif" font-size="14" lengthAdjust="spacing" textLength="104" x="2795.75" y="493.8467">UserController</text><line style="stroke:#181818;stroke-width:0.5;" x1="2680" x2="2983" y1="505" y2="505"/><ellipse cx="2690" cy="518.6484" fill="none" rx="3" ry="3" style="stroke:#038048;stroke-width:1.0;"/><text fill="#000000" font-family="sans-serif" font-size="14" lengthAdjust="spacing" textLength="186" x="2699" y="521.9951">Enseignants: Enseignant[]</text><line style="stroke:#181818;stroke-width:0.5;" x1="2680" x2="2983" y1="529.2969" y2="529.2969"/><ellipse cx="2690" cy="542.9453" fill="#84BE84" rx="3" ry="3" style="stroke:#038048;stroke-width:1.0;"/><text fill="#000000" font-family="sans-serif" font-size="14" lengthAdjust="spacing" textLength="279" x="2699" y="546.292">findTeacher(token: string): Enseignant</text></g><!--class CoursRouter--><g id="elem_CoursRouter"><rect codeLine="103" fill="#F1F1F1" height="178.375" id="CoursRouter" rx="2.5" ry="2.5" style="stroke:#181818;stroke-width:0.5;" width="1274" x="51.5" y="777"/><ellipse cx="639.75" cy="793" fill="#ADD1B2" rx="11" ry="11" style="stroke:#181818;stroke-width:1.0;"/><path d="M642.0938,788.6719 C641.1563,788.2344 640.5625,788.0938 639.6875,788.0938 C637.0625,788.0938 635.0625,790.1719 635.0625,792.8906 L635.0625,794.0156 C635.0625,796.5938 637.1719,798.4844 640.0625,798.4844 C641.2813,798.4844 642.4375,798.1875 643.1875,797.6406 C643.7656,797.2344 644.0938,796.7813 644.0938,796.3906 C644.0938,795.9375 643.7031,795.5469 643.2344,795.5469 C643.0156,795.5469 642.8125,795.625 642.625,795.8125 C642.1719,796.2969 642.1719,796.2969 641.9844,796.3906 C641.5625,796.6563 640.875,796.7813 640.1094,796.7813 C638.0625,796.7813 636.7656,795.6875 636.7656,793.9844 L636.7656,792.8906 C636.7656,791.1094 638.0156,789.7969 639.75,789.7969 C640.3281,789.7969 640.9375,789.9531 641.4063,790.2031 C641.8906,790.4844 642.0625,790.7031 642.1563,791.1094 C642.2188,791.5156 642.25,791.6406 642.3906,791.7656 C642.5313,791.9063 642.7656,792.0156 642.9844,792.0156 C643.25,792.0156 643.5156,791.875 643.6875,791.6563 C643.7969,791.5 643.8281,791.3125 643.8281,790.8906 L643.8281,789.4688 C643.8281,789.0313 643.8125,788.9063 643.7188,788.75 C643.5625,788.4844 643.2813,788.3438 642.9844,788.3438 C642.6875,788.3438 642.4844,788.4375 642.2656,788.75 L642.0938,788.6719 Z " fill="#000000"/><text fill="#000000" font-family="sans-serif" font-size="14" lengthAdjust="spacing" textLength="89" x="660.25" y="797.8467">CoursRouter</text><line style="stroke:#181818;stroke-width:0.5;" x1="52.5" x2="1324.5" y1="809" y2="809"/><rect fill="none" height="6" style="stroke:#C82930;stroke-width:1.0;" width="6" x="59.5" y="819.6484"/><text fill="#000000" font-family="sans-serif" font-size="14" lengthAdjust="spacing" textLength="110" x="71.5" y="825.9951">_router: Router</text><ellipse cx="62.5" cy="838.9453" fill="none" rx="3" ry="3" style="stroke:#038048;stroke-width:1.0;"/><text fill="#000000" font-family="sans-serif" font-size="14" lengthAdjust="spacing" textLength="103" x="71.5" y="842.292">router: Router</text><line style="stroke:#181818;stroke-width:0.5;" x1="52.5" x2="1324.5" y1="849.5938" y2="849.5938"/><ellipse cx="62.5" cy="863.2422" fill="#84BE84" rx="3" ry="3" style="stroke:#038048;stroke-width:1.0;"/><text fill="#000000" font-family="sans-serif" font-size="14" lengthAdjust="spacing" textLength="1225" x="71.5" y="866.5889">ajouterCours(req: Request&lt;ParamsDictionary, any, any, QueryString.ParsedQs, Record&lt;string, any&gt;&gt;, res: Response&lt;any, Record&lt;string, any&gt;&gt;, next: NextFunction): void</text><ellipse cx="62.5" cy="879.5391" fill="#84BE84" rx="3" ry="3" style="stroke:#038048;stroke-width:1.0;"/><text fill="#000000" font-family="sans-serif" font-size="14" lengthAdjust="spacing" textLength="1248" x="71.5" y="882.8857">supprimerCours(req: Request&lt;ParamsDictionary, any, any, QueryString.ParsedQs, Record&lt;string, any&gt;&gt;, res: Response&lt;any, Record&lt;string, any&gt;&gt;, next: NextFunction): void</text><ellipse cx="62.5" cy="895.8359" fill="#84BE84" rx="3" ry="3" style="stroke:#038048;stroke-width:1.0;"/><text fill="#000000" font-family="sans-serif" font-size="14" lengthAdjust="spacing" textLength="1094" x="71.5" y="899.1826">displayCourses(req: Request&lt;ParamsDictionary, any, any, QueryString.ParsedQs, Record&lt;string, any&gt;&gt;, res: Response&lt;any, Record&lt;string, any&gt;&gt;): void</text><ellipse cx="62.5" cy="912.1328" fill="#84BE84" rx="3" ry="3" style="stroke:#038048;stroke-width:1.0;"/><text fill="#000000" font-family="sans-serif" font-size="14" lengthAdjust="spacing" textLength="1076" x="71.5" y="915.4795">detailsCours(req: Request&lt;ParamsDictionary, any, any, QueryString.ParsedQs, Record&lt;string, any&gt;&gt;, res: Response&lt;any, Record&lt;string, any&gt;&gt;): void</text><rect fill="#F24D5C" height="6" style="stroke:#C82930;stroke-width:1.0;" width="6" x="59.5" y="925.4297"/><text fill="#000000" font-family="sans-serif" font-size="14" lengthAdjust="spacing" textLength="1173" x="71.5" y="931.7764">_errorCode500(error: any, req: Request&lt;ParamsDictionary, any, any, QueryString.ParsedQs, Record&lt;string, any&gt;&gt;, res: Response&lt;any, Record&lt;string, any&gt;&gt;): void</text><ellipse cx="62.5" cy="944.7266" fill="#84BE84" rx="3" ry="3" style="stroke:#038048;stroke-width:1.0;"/><text fill="#000000" font-family="sans-serif" font-size="14" lengthAdjust="spacing" textLength="73" x="71.5" y="948.0732">init(): void</text></g><!--class ApiRouter--><g id="elem_ApiRouter"><rect codeLine="113" fill="#F1F1F1" height="162.0781" id="ApiRouter" rx="2.5" ry="2.5" style="stroke:#181818;stroke-width:0.5;" width="1392" x="1360.5" y="785"/><ellipse cx="2015.75" cy="801" fill="#ADD1B2" rx="11" ry="11" style="stroke:#181818;stroke-width:1.0;"/><path d="M2018.0938,796.6719 C2017.1563,796.2344 2016.5625,796.0938 2015.6875,796.0938 C2013.0625,796.0938 2011.0625,798.1719 2011.0625,800.8906 L2011.0625,802.0156 C2011.0625,804.5938 2013.1719,806.4844 2016.0625,806.4844 C2017.2813,806.4844 2018.4375,806.1875 2019.1875,805.6406 C2019.7656,805.2344 2020.0938,804.7813 2020.0938,804.3906 C2020.0938,803.9375 2019.7031,803.5469 2019.2344,803.5469 C2019.0156,803.5469 2018.8125,803.625 2018.625,803.8125 C2018.1719,804.2969 2018.1719,804.2969 2017.9844,804.3906 C2017.5625,804.6563 2016.875,804.7813 2016.1094,804.7813 C2014.0625,804.7813 2012.7656,803.6875 2012.7656,801.9844 L2012.7656,800.8906 C2012.7656,799.1094 2014.0156,797.7969 2015.75,797.7969 C2016.3281,797.7969 2016.9375,797.9531 2017.4063,798.2031 C2017.8906,798.4844 2018.0625,798.7031 2018.1563,799.1094 C2018.2188,799.5156 2018.25,799.6406 2018.3906,799.7656 C2018.5313,799.9063 2018.7656,800.0156 2018.9844,800.0156 C2019.25,800.0156 2019.5156,799.875 2019.6875,799.6563 C2019.7969,799.5 2019.8281,799.3125 2019.8281,798.8906 L2019.8281,797.4688 C2019.8281,797.0313 2019.8125,796.9063 2019.7188,796.75 C2019.5625,796.4844 2019.2813,796.3438 2018.9844,796.3438 C2018.6875,796.3438 2018.4844,796.4375 2018.2656,796.75 L2018.0938,796.6719 Z " fill="#000000"/><text fill="#000000" font-family="sans-serif" font-size="14" lengthAdjust="spacing" textLength="73" x="2036.25" y="805.8467">ApiRouter</text><line style="stroke:#181818;stroke-width:0.5;" x1="1361.5" x2="2751.5" y1="817" y2="817"/><rect fill="none" height="6" style="stroke:#C82930;stroke-width:1.0;" width="6" x="1368.5" y="827.6484"/><text fill="#000000" font-family="sans-serif" font-size="14" lengthAdjust="spacing" textLength="110" x="1380.5" y="833.9951">_router: Router</text><rect fill="none" height="6" style="stroke:#C82930;stroke-width:1.0;" width="6" x="1368.5" y="843.9453"/><text fill="#000000" font-family="sans-serif" font-size="14" lengthAdjust="spacing" textLength="118" x="1380.5" y="850.292">titreBase: string</text><ellipse cx="1371.5" cy="863.2422" fill="none" rx="3" ry="3" style="stroke:#038048;stroke-width:1.0;"/><text fill="#000000" font-family="sans-serif" font-size="14" lengthAdjust="spacing" textLength="103" x="1380.5" y="866.5889">router: Router</text><line style="stroke:#181818;stroke-width:0.5;" x1="1361.5" x2="2751.5" y1="873.8906" y2="873.8906"/><ellipse cx="1371.5" cy="887.5391" fill="#84BE84" rx="3" ry="3" style="stroke:#038048;stroke-width:1.0;"/><text fill="#000000" font-family="sans-serif" font-size="14" lengthAdjust="spacing" textLength="1256" x="1380.5" y="890.8857">signin(req: Request&lt;ParamsDictionary, any, any, QueryString.ParsedQs, Record&lt;string, any&gt;&gt;, res: Response&lt;any, Record&lt;string, any&gt;&gt;, next: NextFunction): Promise&lt;void&gt;</text><ellipse cx="1371.5" cy="903.8359" fill="#84BE84" rx="3" ry="3" style="stroke:#038048;stroke-width:1.0;"/><text fill="#000000" font-family="sans-serif" font-size="14" lengthAdjust="spacing" textLength="1366" x="1380.5" y="907.1826">tokenAutentification(req: Request&lt;ParamsDictionary, any, any, QueryString.ParsedQs, Record&lt;string, any&gt;&gt;, res: Response&lt;any, Record&lt;string, any&gt;&gt;, next: NextFunction): Promise&lt;void&gt;</text><rect fill="#F24D5C" height="6" style="stroke:#C82930;stroke-width:1.0;" width="6" x="1368.5" y="917.1328"/><text fill="#000000" font-family="sans-serif" font-size="14" lengthAdjust="spacing" textLength="1173" x="1380.5" y="923.4795">_errorCode500(error: any, req: Request&lt;ParamsDictionary, any, any, QueryString.ParsedQs, Record&lt;string, any&gt;&gt;, res: Response&lt;any, Record&lt;string, any&gt;&gt;): void</text><ellipse cx="1371.5" cy="936.4297" fill="#84BE84" rx="3" ry="3" style="stroke:#038048;stroke-width:1.0;"/><text fill="#000000" font-family="sans-serif" font-size="14" lengthAdjust="spacing" textLength="73" x="1380.5" y="939.7764">init(): void</text></g><!--class DevoirController--><g id="elem_DevoirController"><rect codeLine="122" fill="#F1F1F1" height="145.7813" id="DevoirController" rx="2.5" ry="2.5" style="stroke:#181818;stroke-width:0.5;" width="1099" x="2788" y="793"/><ellipse cx="3273.25" cy="809" fill="#ADD1B2" rx="11" ry="11" style="stroke:#181818;stroke-width:1.0;"/><path d="M3275.5938,804.6719 C3274.6563,804.2344 3274.0625,804.0938 3273.1875,804.0938 C3270.5625,804.0938 3268.5625,806.1719 3268.5625,808.8906 L3268.5625,810.0156 C3268.5625,812.5938 3270.6719,814.4844 3273.5625,814.4844 C3274.7813,814.4844 3275.9375,814.1875 3276.6875,813.6406 C3277.2656,813.2344 3277.5938,812.7813 3277.5938,812.3906 C3277.5938,811.9375 3277.2031,811.5469 3276.7344,811.5469 C3276.5156,811.5469 3276.3125,811.625 3276.125,811.8125 C3275.6719,812.2969 3275.6719,812.2969 3275.4844,812.3906 C3275.0625,812.6563 3274.375,812.7813 3273.6094,812.7813 C3271.5625,812.7813 3270.2656,811.6875 3270.2656,809.9844 L3270.2656,808.8906 C3270.2656,807.1094 3271.5156,805.7969 3273.25,805.7969 C3273.8281,805.7969 3274.4375,805.9531 3274.9063,806.2031 C3275.3906,806.4844 3275.5625,806.7031 3275.6563,807.1094 C3275.7188,807.5156 3275.75,807.6406 3275.8906,807.7656 C3276.0313,807.9063 3276.2656,808.0156 3276.4844,808.0156 C3276.75,808.0156 3277.0156,807.875 3277.1875,807.6563 C3277.2969,807.5 3277.3281,807.3125 3277.3281,806.8906 L3277.3281,805.4688 C3277.3281,805.0313 3277.3125,804.9063 3277.2188,804.75 C3277.0625,804.4844 3276.7813,804.3438 3276.4844,804.3438 C3276.1875,804.3438 3275.9844,804.4375 3275.7656,804.75 L3275.5938,804.6719 Z " fill="#000000"/><text fill="#000000" font-family="sans-serif" font-size="14" lengthAdjust="spacing" textLength="120" x="3293.75" y="813.8467">DevoirController</text><line style="stroke:#181818;stroke-width:0.5;" x1="2789" x2="3886" y1="825" y2="825"/><ellipse cx="2799" cy="838.6484" fill="none" rx="3" ry="3" style="stroke:#038048;stroke-width:1.0;"/><text fill="#000000" font-family="sans-serif" font-size="14" lengthAdjust="spacing" textLength="129" x="2808" y="841.9951">uc: UserController</text><line style="stroke:#181818;stroke-width:0.5;" x1="2789" x2="3886" y1="849.2969" y2="849.2969"/><ellipse cx="2799" cy="862.9453" fill="#84BE84" rx="3" ry="3" style="stroke:#038048;stroke-width:1.0;"/><text fill="#000000" font-family="sans-serif" font-size="14" lengthAdjust="spacing" textLength="926" x="2808" y="866.292">ajoutDevoir(nom: string, description: string, noteMax: number, dateDebut: Date, dateFin: Date, cours: string, token: string): void</text><ellipse cx="2799" cy="879.2422" fill="#84BE84" rx="3" ry="3" style="stroke:#038048;stroke-width:1.0;"/><text fill="#000000" font-family="sans-serif" font-size="14" lengthAdjust="spacing" textLength="444" x="2808" y="882.5889">afficherDevoir(nom: string, token: string, cour: string): Devoir</text><ellipse cx="2799" cy="895.5391" fill="#84BE84" rx="3" ry="3" style="stroke:#038048;stroke-width:1.0;"/><text fill="#000000" font-family="sans-serif" font-size="14" lengthAdjust="spacing" textLength="1073" x="2808" y="898.8857">modifierDevoir(nom: string, description: string, noteMax: number, dateDebut: Date, dateFin: Date, cours: string, token: string, oldName: string): void</text><ellipse cx="2799" cy="911.8359" fill="#84BE84" rx="3" ry="3" style="stroke:#038048;stroke-width:1.0;"/><text fill="#000000" font-family="sans-serif" font-size="14" lengthAdjust="spacing" textLength="529" x="2808" y="915.1826">supprimerDevoir(nomDevoir: String, token: string, sigleCour: string): void</text><ellipse cx="2799" cy="928.1328" fill="#84BE84" rx="3" ry="3" style="stroke:#038048;stroke-width:1.0;"/><text fill="#000000" font-family="sans-serif" font-size="14" lengthAdjust="spacing" textLength="479" x="2808" y="931.4795">trouverNomDevoirSimilaire(listeDevoir: Devoir[], nom: string): void</text></g><!--class DevoirRouter--><g id="elem_DevoirRouter"><rect codeLine="130" fill="#F1F1F1" height="276.1563" id="DevoirRouter" rx="2.5" ry="2.5" style="stroke:#181818;stroke-width:0.5;" width="1399" x="3922" y="728"/><ellipse cx="4569.25" cy="744" fill="#ADD1B2" rx="11" ry="11" style="stroke:#181818;stroke-width:1.0;"/><path d="M4571.5938,739.6719 C4570.6563,739.2344 4570.0625,739.0938 4569.1875,739.0938 C4566.5625,739.0938 4564.5625,741.1719 4564.5625,743.8906 L4564.5625,745.0156 C4564.5625,747.5938 4566.6719,749.4844 4569.5625,749.4844 C4570.7813,749.4844 4571.9375,749.1875 4572.6875,748.6406 C4573.2656,748.2344 4573.5938,747.7813 4573.5938,747.3906 C4573.5938,746.9375 4573.2031,746.5469 4572.7344,746.5469 C4572.5156,746.5469 4572.3125,746.625 4572.125,746.8125 C4571.6719,747.2969 4571.6719,747.2969 4571.4844,747.3906 C4571.0625,747.6563 4570.375,747.7813 4569.6094,747.7813 C4567.5625,747.7813 4566.2656,746.6875 4566.2656,744.9844 L4566.2656,743.8906 C4566.2656,742.1094 4567.5156,740.7969 4569.25,740.7969 C4569.8281,740.7969 4570.4375,740.9531 4570.9063,741.2031 C4571.3906,741.4844 4571.5625,741.7031 4571.6563,742.1094 C4571.7188,742.5156 4571.75,742.6406 4571.8906,742.7656 C4572.0313,742.9063 4572.2656,743.0156 4572.4844,743.0156 C4572.75,743.0156 4573.0156,742.875 4573.1875,742.6563 C4573.2969,742.5 4573.3281,742.3125 4573.3281,741.8906 L4573.3281,740.4688 C4573.3281,740.0313 4573.3125,739.9063 4573.2188,739.75 C4573.0625,739.4844 4572.7813,739.3438 4572.4844,739.3438 C4572.1875,739.3438 4571.9844,739.4375 4571.7656,739.75 L4571.5938,739.6719 Z " fill="#000000"/><text fill="#000000" font-family="sans-serif" font-size="14" lengthAdjust="spacing" textLength="96" x="4589.75" y="748.8467">DevoirRouter</text><line style="stroke:#181818;stroke-width:0.5;" x1="3923" x2="5320" y1="760" y2="760"/><rect fill="none" height="6" style="stroke:#C82930;stroke-width:1.0;" width="6" x="3930" y="770.6484"/><text fill="#000000" font-family="sans-serif" font-size="14" lengthAdjust="spacing" textLength="110" x="3942" y="776.9951">_router: Router</text><rect fill="none" height="6" style="stroke:#C82930;stroke-width:1.0;" width="6" x="3930" y="786.9453"/><text fill="#000000" font-family="sans-serif" font-size="14" lengthAdjust="spacing" textLength="254" x="3942" y="793.292">_devoirController: DevoirController</text><ellipse cx="3933" cy="806.2422" fill="none" rx="3" ry="3" style="stroke:#038048;stroke-width:1.0;"/><text fill="#000000" font-family="sans-serif" font-size="14" lengthAdjust="spacing" textLength="103" x="3942" y="809.5889">router: Router</text><ellipse cx="3933" cy="822.5391" fill="none" rx="3" ry="3" style="stroke:#038048;stroke-width:1.0;"/><text fill="#000000" font-family="sans-serif" font-size="14" lengthAdjust="spacing" textLength="247" x="3942" y="825.8857">devoirController: DevoirController</text><line style="stroke:#181818;stroke-width:0.5;" x1="3923" x2="5320" y1="833.1875" y2="833.1875"/><ellipse cx="3933" cy="846.8359" fill="#84BE84" rx="3" ry="3" style="stroke:#038048;stroke-width:1.0;"/><text fill="#000000" font-family="sans-serif" font-size="14" lengthAdjust="spacing" textLength="1346" x="3942" y="850.1826">choixCourPourCreationDevoir(req: Request&lt;ParamsDictionary, any, any, QueryString.ParsedQs, Record&lt;string, any&gt;&gt;, res: Response&lt;any, Record&lt;string, any&gt;&gt;, next: NextFunction): void</text><ellipse cx="3933" cy="863.1328" fill="#84BE84" rx="3" ry="3" style="stroke:#038048;stroke-width:1.0;"/><text fill="#000000" font-family="sans-serif" font-size="14" lengthAdjust="spacing" textLength="1219" x="3942" y="866.4795">creerDevoir(req: Request&lt;ParamsDictionary, any, any, QueryString.ParsedQs, Record&lt;string, any&gt;&gt;, res: Response&lt;any, Record&lt;string, any&gt;&gt;, next: NextFunction): void</text><ellipse cx="3933" cy="879.4297" fill="#84BE84" rx="3" ry="3" style="stroke:#038048;stroke-width:1.0;"/><text fill="#000000" font-family="sans-serif" font-size="14" lengthAdjust="spacing" textLength="1102" x="3942" y="882.7764">affichageDevoir(req: Request&lt;ParamsDictionary, any, any, QueryString.ParsedQs, Record&lt;string, any&gt;&gt;, res: Response&lt;any, Record&lt;string, any&gt;&gt;): void</text><ellipse cx="3933" cy="895.7266" fill="#84BE84" rx="3" ry="3" style="stroke:#038048;stroke-width:1.0;"/><text fill="#000000" font-family="sans-serif" font-size="14" lengthAdjust="spacing" textLength="1083" x="3942" y="899.0732">detailsDevoir(req: Request&lt;ParamsDictionary, any, any, QueryString.ParsedQs, Record&lt;string, any&gt;&gt;, res: Response&lt;any, Record&lt;string, any&gt;&gt;): void</text><ellipse cx="3933" cy="912.0234" fill="#84BE84" rx="3" ry="3" style="stroke:#038048;stroke-width:1.0;"/><text fill="#000000" font-family="sans-serif" font-size="14" lengthAdjust="spacing" textLength="1373" x="3942" y="915.3701">choixCourPourModificationDevoir(req: Request&lt;ParamsDictionary, any, any, QueryString.ParsedQs, Record&lt;string, any&gt;&gt;, res: Response&lt;any, Record&lt;string, any&gt;&gt;, next: NextFunction): void</text><ellipse cx="3933" cy="928.3203" fill="#84BE84" rx="3" ry="3" style="stroke:#038048;stroke-width:1.0;"/><text fill="#000000" font-family="sans-serif" font-size="14" lengthAdjust="spacing" textLength="1242" x="3942" y="931.667">modifierDevoir(req: Request&lt;ParamsDictionary, any, any, QueryString.ParsedQs, Record&lt;string, any&gt;&gt;, res: Response&lt;any, Record&lt;string, any&gt;&gt;, next: NextFunction): void</text><ellipse cx="3933" cy="944.6172" fill="#84BE84" rx="3" ry="3" style="stroke:#038048;stroke-width:1.0;"/><text fill="#000000" font-family="sans-serif" font-size="14" lengthAdjust="spacing" textLength="1372" x="3942" y="947.9639">choixCourPourSuppressionDevoir(req: Request&lt;ParamsDictionary, any, any, QueryString.ParsedQs, Record&lt;string, any&gt;&gt;, res: Response&lt;any, Record&lt;string, any&gt;&gt;, next: NextFunction): void</text><ellipse cx="3933" cy="960.9141" fill="#84BE84" rx="3" ry="3" style="stroke:#038048;stroke-width:1.0;"/><text fill="#000000" font-family="sans-serif" font-size="14" lengthAdjust="spacing" textLength="1255" x="3942" y="964.2607">supprimerDevoir(req: Request&lt;ParamsDictionary, any, any, QueryString.ParsedQs, Record&lt;string, any&gt;&gt;, res: Response&lt;any, Record&lt;string, any&gt;&gt;, next: NextFunction): void</text><rect fill="#F24D5C" height="6" style="stroke:#C82930;stroke-width:1.0;" width="6" x="3930" y="974.2109"/><text fill="#000000" font-family="sans-serif" font-size="14" lengthAdjust="spacing" textLength="1173" x="3942" y="980.5576">_errorCode500(error: any, req: Request&lt;ParamsDictionary, any, any, QueryString.ParsedQs, Record&lt;string, any&gt;&gt;, res: Response&lt;any, Record&lt;string, any&gt;&gt;): void</text><ellipse cx="3933" cy="993.5078" fill="#84BE84" rx="3" ry="3" style="stroke:#038048;stroke-width:1.0;"/><text fill="#000000" font-family="sans-serif" font-size="14" lengthAdjust="spacing" textLength="73" x="3942" y="996.8545">init(): void</text></g><!--class questionVraiFaux--><g id="elem_questionVraiFaux"><rect codeLine="146" fill="#F1F1F1" height="113.1875" id="questionVraiFaux" rx="2.5" ry="2.5" style="stroke:#181818;stroke-width:0.5;" width="874" x="3019.5" y="457"/><ellipse cx="3391.25" cy="473" fill="#ADD1B2" rx="11" ry="11" style="stroke:#181818;stroke-width:1.0;"/><path d="M3393.5938,468.6719 C3392.6563,468.2344 3392.0625,468.0938 3391.1875,468.0938 C3388.5625,468.0938 3386.5625,470.1719 3386.5625,472.8906 L3386.5625,474.0156 C3386.5625,476.5938 3388.6719,478.4844 3391.5625,478.4844 C3392.7813,478.4844 3393.9375,478.1875 3394.6875,477.6406 C3395.2656,477.2344 3395.5938,476.7813 3395.5938,476.3906 C3395.5938,475.9375 3395.2031,475.5469 3394.7344,475.5469 C3394.5156,475.5469 3394.3125,475.625 3394.125,475.8125 C3393.6719,476.2969 3393.6719,476.2969 3393.4844,476.3906 C3393.0625,476.6563 3392.375,476.7813 3391.6094,476.7813 C3389.5625,476.7813 3388.2656,475.6875 3388.2656,473.9844 L3388.2656,472.8906 C3388.2656,471.1094 3389.5156,469.7969 3391.25,469.7969 C3391.8281,469.7969 3392.4375,469.9531 3392.9063,470.2031 C3393.3906,470.4844 3393.5625,470.7031 3393.6563,471.1094 C3393.7188,471.5156 3393.75,471.6406 3393.8906,471.7656 C3394.0313,471.9063 3394.2656,472.0156 3394.4844,472.0156 C3394.75,472.0156 3395.0156,471.875 3395.1875,471.6563 C3395.2969,471.5 3395.3281,471.3125 3395.3281,470.8906 L3395.3281,469.4688 C3395.3281,469.0313 3395.3125,468.9063 3395.2188,468.75 C3395.0625,468.4844 3394.7813,468.3438 3394.4844,468.3438 C3394.1875,468.3438 3393.9844,468.4375 3393.7656,468.75 L3393.5938,468.6719 Z " fill="#000000"/><text fill="#000000" font-family="sans-serif" font-size="14" lengthAdjust="spacing" textLength="122" x="3411.75" y="477.8467">questionVraiFaux</text><line style="stroke:#181818;stroke-width:0.5;" x1="3020.5" x2="3892.5" y1="489" y2="489"/><ellipse cx="3030.5" cy="502.6484" fill="none" rx="3" ry="3" style="stroke:#038048;stroke-width:1.0;"/><text fill="#000000" font-family="sans-serif" font-size="14" lengthAdjust="spacing" textLength="110" x="3039.5" y="505.9951">reponse: string</text><ellipse cx="3030.5" cy="518.9453" fill="none" rx="3" ry="3" style="stroke:#038048;stroke-width:1.0;"/><text fill="#000000" font-family="sans-serif" font-size="14" lengthAdjust="spacing" textLength="108" x="3039.5" y="522.292">retroBR: string</text><ellipse cx="3030.5" cy="535.2422" fill="none" rx="3" ry="3" style="stroke:#038048;stroke-width:1.0;"/><text fill="#000000" font-family="sans-serif" font-size="14" lengthAdjust="spacing" textLength="110" x="3039.5" y="538.5889">retroMR: string</text><line style="stroke:#181818;stroke-width:0.5;" x1="3020.5" x2="3892.5" y1="545.8906" y2="545.8906"/><ellipse cx="3030.5" cy="559.5391" fill="#84BE84" rx="3" ry="3" style="stroke:#038048;stroke-width:1.0;"/><text fill="#000000" font-family="sans-serif" font-size="14" lengthAdjust="spacing" textLength="848" x="3039.5" y="562.8857">toJSON(): { nom: string; enonce: string; tags: String[]; type: string; reponse: string; retroBR: string; retroMR: string; }</text></g><!--class questionNumerique--><g id="elem_questionNumerique"><rect codeLine="152" fill="#F1F1F1" height="113.1875" id="questionNumerique" rx="2.5" ry="2.5" style="stroke:#181818;stroke-width:0.5;" width="874" x="3928.5" y="457"/><ellipse cx="4291.75" cy="473" fill="#ADD1B2" rx="11" ry="11" style="stroke:#181818;stroke-width:1.0;"/><path d="M4294.0938,468.6719 C4293.1563,468.2344 4292.5625,468.0938 4291.6875,468.0938 C4289.0625,468.0938 4287.0625,470.1719 4287.0625,472.8906 L4287.0625,474.0156 C4287.0625,476.5938 4289.1719,478.4844 4292.0625,478.4844 C4293.2813,478.4844 4294.4375,478.1875 4295.1875,477.6406 C4295.7656,477.2344 4296.0938,476.7813 4296.0938,476.3906 C4296.0938,475.9375 4295.7031,475.5469 4295.2344,475.5469 C4295.0156,475.5469 4294.8125,475.625 4294.625,475.8125 C4294.1719,476.2969 4294.1719,476.2969 4293.9844,476.3906 C4293.5625,476.6563 4292.875,476.7813 4292.1094,476.7813 C4290.0625,476.7813 4288.7656,475.6875 4288.7656,473.9844 L4288.7656,472.8906 C4288.7656,471.1094 4290.0156,469.7969 4291.75,469.7969 C4292.3281,469.7969 4292.9375,469.9531 4293.4063,470.2031 C4293.8906,470.4844 4294.0625,470.7031 4294.1563,471.1094 C4294.2188,471.5156 4294.25,471.6406 4294.3906,471.7656 C4294.5313,471.9063 4294.7656,472.0156 4294.9844,472.0156 C4295.25,472.0156 4295.5156,471.875 4295.6875,471.6563 C4295.7969,471.5 4295.8281,471.3125 4295.8281,470.8906 L4295.8281,469.4688 C4295.8281,469.0313 4295.8125,468.9063 4295.7188,468.75 C4295.5625,468.4844 4295.2813,468.3438 4294.9844,468.3438 C4294.6875,468.3438 4294.4844,468.4375 4294.2656,468.75 L4294.0938,468.6719 Z " fill="#000000"/><text fill="#000000" font-family="sans-serif" font-size="14" lengthAdjust="spacing" textLength="139" x="4312.25" y="477.8467">questionNumerique</text><line style="stroke:#181818;stroke-width:0.5;" x1="3929.5" x2="4801.5" y1="489" y2="489"/><ellipse cx="3939.5" cy="502.6484" fill="none" rx="3" ry="3" style="stroke:#038048;stroke-width:1.0;"/><text fill="#000000" font-family="sans-serif" font-size="14" lengthAdjust="spacing" textLength="110" x="3948.5" y="505.9951">reponse: string</text><ellipse cx="3939.5" cy="518.9453" fill="none" rx="3" ry="3" style="stroke:#038048;stroke-width:1.0;"/><text fill="#000000" font-family="sans-serif" font-size="14" lengthAdjust="spacing" textLength="108" x="3948.5" y="522.292">retroBR: string</text><ellipse cx="3939.5" cy="535.2422" fill="none" rx="3" ry="3" style="stroke:#038048;stroke-width:1.0;"/><text fill="#000000" font-family="sans-serif" font-size="14" lengthAdjust="spacing" textLength="110" x="3948.5" y="538.5889">retroMR: string</text><line style="stroke:#181818;stroke-width:0.5;" x1="3929.5" x2="4801.5" y1="545.8906" y2="545.8906"/><ellipse cx="3939.5" cy="559.5391" fill="#84BE84" rx="3" ry="3" style="stroke:#038048;stroke-width:1.0;"/><text fill="#000000" font-family="sans-serif" font-size="14" lengthAdjust="spacing" textLength="848" x="3948.5" y="562.8857">toJSON(): { nom: string; enonce: string; tags: String[]; type: string; reponse: string; retroBR: string; retroMR: string; }</text></g><!--class questionEssai--><g id="elem_questionEssai"><rect codeLine="158" fill="#F1F1F1" height="113.1875" id="questionEssai" rx="2.5" ry="2.5" style="stroke:#181818;stroke-width:0.5;" width="874" x="4837.5" y="457"/><ellipse cx="5221.75" cy="473" fill="#ADD1B2" rx="11" ry="11" style="stroke:#181818;stroke-width:1.0;"/><path d="M5224.0938,468.6719 C5223.1563,468.2344 5222.5625,468.0938 5221.6875,468.0938 C5219.0625,468.0938 5217.0625,470.1719 5217.0625,472.8906 L5217.0625,474.0156 C5217.0625,476.5938 5219.1719,478.4844 5222.0625,478.4844 C5223.2813,478.4844 5224.4375,478.1875 5225.1875,477.6406 C5225.7656,477.2344 5226.0938,476.7813 5226.0938,476.3906 C5226.0938,475.9375 5225.7031,475.5469 5225.2344,475.5469 C5225.0156,475.5469 5224.8125,475.625 5224.625,475.8125 C5224.1719,476.2969 5224.1719,476.2969 5223.9844,476.3906 C5223.5625,476.6563 5222.875,476.7813 5222.1094,476.7813 C5220.0625,476.7813 5218.7656,475.6875 5218.7656,473.9844 L5218.7656,472.8906 C5218.7656,471.1094 5220.0156,469.7969 5221.75,469.7969 C5222.3281,469.7969 5222.9375,469.9531 5223.4063,470.2031 C5223.8906,470.4844 5224.0625,470.7031 5224.1563,471.1094 C5224.2188,471.5156 5224.25,471.6406 5224.3906,471.7656 C5224.5313,471.9063 5224.7656,472.0156 5224.9844,472.0156 C5225.25,472.0156 5225.5156,471.875 5225.6875,471.6563 C5225.7969,471.5 5225.8281,471.3125 5225.8281,470.8906 L5225.8281,469.4688 C5225.8281,469.0313 5225.8125,468.9063 5225.7188,468.75 C5225.5625,468.4844 5225.2813,468.3438 5224.9844,468.3438 C5224.6875,468.3438 5224.4844,468.4375 5224.2656,468.75 L5224.0938,468.6719 Z " fill="#000000"/><text fill="#000000" font-family="sans-serif" font-size="14" lengthAdjust="spacing" textLength="97" x="5242.25" y="477.8467">questionEssai</text><line style="stroke:#181818;stroke-width:0.5;" x1="4838.5" x2="5710.5" y1="489" y2="489"/><ellipse cx="4848.5" cy="502.6484" fill="none" rx="3" ry="3" style="stroke:#038048;stroke-width:1.0;"/><text fill="#000000" font-family="sans-serif" font-size="14" lengthAdjust="spacing" textLength="110" x="4857.5" y="505.9951">reponse: string</text><ellipse cx="4848.5" cy="518.9453" fill="none" rx="3" ry="3" style="stroke:#038048;stroke-width:1.0;"/><text fill="#000000" font-family="sans-serif" font-size="14" lengthAdjust="spacing" textLength="108" x="4857.5" y="522.292">retroBR: string</text><ellipse cx="4848.5" cy="535.2422" fill="none" rx="3" ry="3" style="stroke:#038048;stroke-width:1.0;"/><text fill="#000000" font-family="sans-serif" font-size="14" lengthAdjust="spacing" textLength="110" x="4857.5" y="538.5889">retroMR: string</text><line style="stroke:#181818;stroke-width:0.5;" x1="4838.5" x2="5710.5" y1="545.8906" y2="545.8906"/><ellipse cx="4848.5" cy="559.5391" fill="#84BE84" rx="3" ry="3" style="stroke:#038048;stroke-width:1.0;"/><text fill="#000000" font-family="sans-serif" font-size="14" lengthAdjust="spacing" textLength="848" x="4857.5" y="562.8857">toJSON(): { nom: string; enonce: string; tags: String[]; type: string; reponse: string; retroBR: string; retroMR: string; }</text></g><!--class questionReponseCourte--><g id="elem_questionReponseCourte"><rect codeLine="164" fill="#F1F1F1" height="113.1875" id="questionReponseCourte" rx="2.5" ry="2.5" style="stroke:#181818;stroke-width:0.5;" width="874" x="5746.5" y="457"/><ellipse cx="6092.25" cy="473" fill="#ADD1B2" rx="11" ry="11" style="stroke:#181818;stroke-width:1.0;"/><path d="M6094.5938,468.6719 C6093.6563,468.2344 6093.0625,468.0938 6092.1875,468.0938 C6089.5625,468.0938 6087.5625,470.1719 6087.5625,472.8906 L6087.5625,474.0156 C6087.5625,476.5938 6089.6719,478.4844 6092.5625,478.4844 C6093.7813,478.4844 6094.9375,478.1875 6095.6875,477.6406 C6096.2656,477.2344 6096.5938,476.7813 6096.5938,476.3906 C6096.5938,475.9375 6096.2031,475.5469 6095.7344,475.5469 C6095.5156,475.5469 6095.3125,475.625 6095.125,475.8125 C6094.6719,476.2969 6094.6719,476.2969 6094.4844,476.3906 C6094.0625,476.6563 6093.375,476.7813 6092.6094,476.7813 C6090.5625,476.7813 6089.2656,475.6875 6089.2656,473.9844 L6089.2656,472.8906 C6089.2656,471.1094 6090.5156,469.7969 6092.25,469.7969 C6092.8281,469.7969 6093.4375,469.9531 6093.9063,470.2031 C6094.3906,470.4844 6094.5625,470.7031 6094.6563,471.1094 C6094.7188,471.5156 6094.75,471.6406 6094.8906,471.7656 C6095.0313,471.9063 6095.2656,472.0156 6095.4844,472.0156 C6095.75,472.0156 6096.0156,471.875 6096.1875,471.6563 C6096.2969,471.5 6096.3281,471.3125 6096.3281,470.8906 L6096.3281,469.4688 C6096.3281,469.0313 6096.3125,468.9063 6096.2188,468.75 C6096.0625,468.4844 6095.7813,468.3438 6095.4844,468.3438 C6095.1875,468.3438 6094.9844,468.4375 6094.7656,468.75 L6094.5938,468.6719 Z " fill="#000000"/><text fill="#000000" font-family="sans-serif" font-size="14" lengthAdjust="spacing" textLength="174" x="6112.75" y="477.8467">questionReponseCourte</text><line style="stroke:#181818;stroke-width:0.5;" x1="5747.5" x2="6619.5" y1="489" y2="489"/><ellipse cx="5757.5" cy="502.6484" fill="none" rx="3" ry="3" style="stroke:#038048;stroke-width:1.0;"/><text fill="#000000" font-family="sans-serif" font-size="14" lengthAdjust="spacing" textLength="110" x="5766.5" y="505.9951">reponse: string</text><ellipse cx="5757.5" cy="518.9453" fill="none" rx="3" ry="3" style="stroke:#038048;stroke-width:1.0;"/><text fill="#000000" font-family="sans-serif" font-size="14" lengthAdjust="spacing" textLength="108" x="5766.5" y="522.292">retroBR: string</text><ellipse cx="5757.5" cy="535.2422" fill="none" rx="3" ry="3" style="stroke:#038048;stroke-width:1.0;"/><text fill="#000000" font-family="sans-serif" font-size="14" lengthAdjust="spacing" textLength="110" x="5766.5" y="538.5889">retroMR: string</text><line style="stroke:#181818;stroke-width:0.5;" x1="5747.5" x2="6619.5" y1="545.8906" y2="545.8906"/><ellipse cx="5757.5" cy="559.5391" fill="#84BE84" rx="3" ry="3" style="stroke:#038048;stroke-width:1.0;"/><text fill="#000000" font-family="sans-serif" font-size="14" lengthAdjust="spacing" textLength="848" x="5766.5" y="562.8857">toJSON(): { nom: string; enonce: string; tags: String[]; type: string; reponse: string; retroBR: string; retroMR: string; }</text></g><!--class questionChoixMultiples--><g id="elem_questionChoixMultiples"><rect codeLine="170" fill="#F1F1F1" height="129.4844" id="questionChoixMultiples" rx="2.5" ry="2.5" style="stroke:#181818;stroke-width:0.5;" width="1047" x="6656" y="449"/><ellipse cx="7091.75" cy="465" fill="#ADD1B2" rx="11" ry="11" style="stroke:#181818;stroke-width:1.0;"/><path d="M7094.0938,460.6719 C7093.1563,460.2344 7092.5625,460.0938 7091.6875,460.0938 C7089.0625,460.0938 7087.0625,462.1719 7087.0625,464.8906 L7087.0625,466.0156 C7087.0625,468.5938 7089.1719,470.4844 7092.0625,470.4844 C7093.2813,470.4844 7094.4375,470.1875 7095.1875,469.6406 C7095.7656,469.2344 7096.0938,468.7813 7096.0938,468.3906 C7096.0938,467.9375 7095.7031,467.5469 7095.2344,467.5469 C7095.0156,467.5469 7094.8125,467.625 7094.625,467.8125 C7094.1719,468.2969 7094.1719,468.2969 7093.9844,468.3906 C7093.5625,468.6563 7092.875,468.7813 7092.1094,468.7813 C7090.0625,468.7813 7088.7656,467.6875 7088.7656,465.9844 L7088.7656,464.8906 C7088.7656,463.1094 7090.0156,461.7969 7091.75,461.7969 C7092.3281,461.7969 7092.9375,461.9531 7093.4063,462.2031 C7093.8906,462.4844 7094.0625,462.7031 7094.1563,463.1094 C7094.2188,463.5156 7094.25,463.6406 7094.3906,463.7656 C7094.5313,463.9063 7094.7656,464.0156 7094.9844,464.0156 C7095.25,464.0156 7095.5156,463.875 7095.6875,463.6563 C7095.7969,463.5 7095.8281,463.3125 7095.8281,462.8906 L7095.8281,461.4688 C7095.8281,461.0313 7095.8125,460.9063 7095.7188,460.75 C7095.5625,460.4844 7095.2813,460.3438 7094.9844,460.3438 C7094.6875,460.3438 7094.4844,460.4375 7094.2656,460.75 L7094.0938,460.6719 Z " fill="#000000"/><text fill="#000000" font-family="sans-serif" font-size="14" lengthAdjust="spacing" textLength="167" x="7112.25" y="469.8467">questionChoixMultiples</text><line style="stroke:#181818;stroke-width:0.5;" x1="6657" x2="7702" y1="481" y2="481"/><ellipse cx="6667" cy="494.6484" fill="none" rx="3" ry="3" style="stroke:#038048;stroke-width:1.0;"/><text fill="#000000" font-family="sans-serif" font-size="14" lengthAdjust="spacing" textLength="110" x="6676" y="497.9951">reponse: string</text><ellipse cx="6667" cy="510.9453" fill="none" rx="3" ry="3" style="stroke:#038048;stroke-width:1.0;"/><text fill="#000000" font-family="sans-serif" font-size="14" lengthAdjust="spacing" textLength="108" x="6676" y="514.292">retroBR: string</text><ellipse cx="6667" cy="527.2422" fill="none" rx="3" ry="3" style="stroke:#038048;stroke-width:1.0;"/><text fill="#000000" font-family="sans-serif" font-size="14" lengthAdjust="spacing" textLength="110" x="6676" y="530.5889">retroMR: string</text><ellipse cx="6667" cy="543.5391" fill="none" rx="3" ry="3" style="stroke:#038048;stroke-width:1.0;"/><text fill="#000000" font-family="sans-serif" font-size="14" lengthAdjust="spacing" textLength="164" x="6676" y="546.8857">choixReponse: String[]</text><line style="stroke:#181818;stroke-width:0.5;" x1="6657" x2="7702" y1="554.1875" y2="554.1875"/><ellipse cx="6667" cy="567.8359" fill="#84BE84" rx="3" ry="3" style="stroke:#038048;stroke-width:1.0;"/><text fill="#000000" font-family="sans-serif" font-size="14" lengthAdjust="spacing" textLength="1021" x="6676" y="571.1826">toJSON(): { nom: string; enonce: string; tags: String[]; type: string; choixReponse: String[]; reponse: string; retroBR: string; retroMR: string; }</text></g><!--class QuestionController--><g id="elem_QuestionController"><rect codeLine="177" fill="#F1F1F1" height="96.8906" id="QuestionController" rx="2.5" ry="2.5" style="stroke:#181818;stroke-width:0.5;" width="1363" x="7" y="1113"/><ellipse cx="615.75" cy="1129" fill="#ADD1B2" rx="11" ry="11" style="stroke:#181818;stroke-width:1.0;"/><path d="M618.0938,1124.6719 C617.1563,1124.2344 616.5625,1124.0938 615.6875,1124.0938 C613.0625,1124.0938 611.0625,1126.1719 611.0625,1128.8906 L611.0625,1130.0156 C611.0625,1132.5938 613.1719,1134.4844 616.0625,1134.4844 C617.2813,1134.4844 618.4375,1134.1875 619.1875,1133.6406 C619.7656,1133.2344 620.0938,1132.7813 620.0938,1132.3906 C620.0938,1131.9375 619.7031,1131.5469 619.2344,1131.5469 C619.0156,1131.5469 618.8125,1131.625 618.625,1131.8125 C618.1719,1132.2969 618.1719,1132.2969 617.9844,1132.3906 C617.5625,1132.6563 616.875,1132.7813 616.1094,1132.7813 C614.0625,1132.7813 612.7656,1131.6875 612.7656,1129.9844 L612.7656,1128.8906 C612.7656,1127.1094 614.0156,1125.7969 615.75,1125.7969 C616.3281,1125.7969 616.9375,1125.9531 617.4063,1126.2031 C617.8906,1126.4844 618.0625,1126.7031 618.1563,1127.1094 C618.2188,1127.5156 618.25,1127.6406 618.3906,1127.7656 C618.5313,1127.9063 618.7656,1128.0156 618.9844,1128.0156 C619.25,1128.0156 619.5156,1127.875 619.6875,1127.6563 C619.7969,1127.5 619.8281,1127.3125 619.8281,1126.8906 L619.8281,1125.4688 C619.8281,1125.0313 619.8125,1124.9063 619.7188,1124.75 C619.5625,1124.4844 619.2813,1124.3438 618.9844,1124.3438 C618.6875,1124.3438 618.4844,1124.4375 618.2656,1124.75 L618.0938,1124.6719 Z " fill="#000000"/><text fill="#000000" font-family="sans-serif" font-size="14" lengthAdjust="spacing" textLength="137" x="636.25" y="1133.8467">QuestionController</text><line style="stroke:#181818;stroke-width:0.5;" x1="8" x2="1369" y1="1145" y2="1145"/><ellipse cx="18" cy="1158.6484" fill="none" rx="3" ry="3" style="stroke:#038048;stroke-width:1.0;"/><text fill="#000000" font-family="sans-serif" font-size="14" lengthAdjust="spacing" textLength="129" x="27" y="1161.9951">uc: UserController</text><line style="stroke:#181818;stroke-width:0.5;" x1="8" x2="1369" y1="1169.2969" y2="1169.2969"/><ellipse cx="18" cy="1182.9453" fill="#84BE84" rx="3" ry="3" style="stroke:#038048;stroke-width:1.0;"/><text fill="#000000" font-family="sans-serif" font-size="14" lengthAdjust="spacing" textLength="1337" x="27" y="1186.292">ajouterQuestion(nom: string, enonce: string, choixReponse: string[], reponse: string, retroBR: string, retroMR: string, tags: string[], typeQuestion: string, cours: string, token: string): void</text><ellipse cx="18" cy="1199.2422" fill="#84BE84" rx="3" ry="3" style="stroke:#038048;stroke-width:1.0;"/><text fill="#000000" font-family="sans-serif" font-size="14" lengthAdjust="spacing" textLength="535" x="27" y="1202.5889">trouverNomQuestionSimilaire(listeQuestions: question[], nom: string): void</text></g><!--class QuestionRouter--><g id="elem_QuestionRouter"><rect codeLine="182" fill="#F1F1F1" height="194.6719" id="QuestionRouter" rx="2.5" ry="2.5" style="stroke:#181818;stroke-width:0.5;" width="1389" x="1405" y="1064"/><ellipse cx="2038.75" cy="1080" fill="#ADD1B2" rx="11" ry="11" style="stroke:#181818;stroke-width:1.0;"/><path d="M2041.0938,1075.6719 C2040.1563,1075.2344 2039.5625,1075.0938 2038.6875,1075.0938 C2036.0625,1075.0938 2034.0625,1077.1719 2034.0625,1079.8906 L2034.0625,1081.0156 C2034.0625,1083.5938 2036.1719,1085.4844 2039.0625,1085.4844 C2040.2813,1085.4844 2041.4375,1085.1875 2042.1875,1084.6406 C2042.7656,1084.2344 2043.0938,1083.7813 2043.0938,1083.3906 C2043.0938,1082.9375 2042.7031,1082.5469 2042.2344,1082.5469 C2042.0156,1082.5469 2041.8125,1082.625 2041.625,1082.8125 C2041.1719,1083.2969 2041.1719,1083.2969 2040.9844,1083.3906 C2040.5625,1083.6563 2039.875,1083.7813 2039.1094,1083.7813 C2037.0625,1083.7813 2035.7656,1082.6875 2035.7656,1080.9844 L2035.7656,1079.8906 C2035.7656,1078.1094 2037.0156,1076.7969 2038.75,1076.7969 C2039.3281,1076.7969 2039.9375,1076.9531 2040.4063,1077.2031 C2040.8906,1077.4844 2041.0625,1077.7031 2041.1563,1078.1094 C2041.2188,1078.5156 2041.25,1078.6406 2041.3906,1078.7656 C2041.5313,1078.9063 2041.7656,1079.0156 2041.9844,1079.0156 C2042.25,1079.0156 2042.5156,1078.875 2042.6875,1078.6563 C2042.7969,1078.5 2042.8281,1078.3125 2042.8281,1077.8906 L2042.8281,1076.4688 C2042.8281,1076.0313 2042.8125,1075.9063 2042.7188,1075.75 C2042.5625,1075.4844 2042.2813,1075.3438 2041.9844,1075.3438 C2041.6875,1075.3438 2041.4844,1075.4375 2041.2656,1075.75 L2041.0938,1075.6719 Z " fill="#000000"/><text fill="#000000" font-family="sans-serif" font-size="14" lengthAdjust="spacing" textLength="113" x="2059.25" y="1084.8467">QuestionRouter</text><line style="stroke:#181818;stroke-width:0.5;" x1="1406" x2="2793" y1="1096" y2="1096"/><rect fill="none" height="6" style="stroke:#C82930;stroke-width:1.0;" width="6" x="1413" y="1106.6484"/><text fill="#000000" font-family="sans-serif" font-size="14" lengthAdjust="spacing" textLength="110" x="1425" y="1112.9951">_router: Router</text><rect fill="none" height="6" style="stroke:#C82930;stroke-width:1.0;" width="6" x="1413" y="1122.9453"/><text fill="#000000" font-family="sans-serif" font-size="14" lengthAdjust="spacing" textLength="271" x="1425" y="1129.292">_devoirController: QuestionController</text><ellipse cx="1416" cy="1142.2422" fill="none" rx="3" ry="3" style="stroke:#038048;stroke-width:1.0;"/><text fill="#000000" font-family="sans-serif" font-size="14" lengthAdjust="spacing" textLength="103" x="1425" y="1145.5889">router: Router</text><ellipse cx="1416" cy="1158.5391" fill="none" rx="3" ry="3" style="stroke:#038048;stroke-width:1.0;"/><text fill="#000000" font-family="sans-serif" font-size="14" lengthAdjust="spacing" textLength="264" x="1425" y="1161.8857">devoirController: QuestionController</text><line style="stroke:#181818;stroke-width:0.5;" x1="1406" x2="2793" y1="1169.1875" y2="1169.1875"/><ellipse cx="1416" cy="1182.8359" fill="#84BE84" rx="3" ry="3" style="stroke:#038048;stroke-width:1.0;"/><text fill="#000000" font-family="sans-serif" font-size="14" lengthAdjust="spacing" textLength="1363" x="1425" y="1186.1826">choixCourPourCreationQuestion(req: Request&lt;ParamsDictionary, any, any, QueryString.ParsedQs, Record&lt;string, any&gt;&gt;, res: Response&lt;any, Record&lt;string, any&gt;&gt;, next: NextFunction): void</text><ellipse cx="1416" cy="1199.1328" fill="#84BE84" rx="3" ry="3" style="stroke:#038048;stroke-width:1.0;"/><text fill="#000000" font-family="sans-serif" font-size="14" lengthAdjust="spacing" textLength="1309" x="1425" y="1202.4795">ajouterQuestionVraiFaux(req: Request&lt;ParamsDictionary, any, any, QueryString.ParsedQs, Record&lt;string, any&gt;&gt;, res: Response&lt;any, Record&lt;string, any&gt;&gt;, next: NextFunction): void</text><ellipse cx="1416" cy="1215.4297" fill="#84BE84" rx="3" ry="3" style="stroke:#038048;stroke-width:1.0;"/><text fill="#000000" font-family="sans-serif" font-size="14" lengthAdjust="spacing" textLength="1354" x="1425" y="1218.7764">ajouterQuestionChoixMultiples(req: Request&lt;ParamsDictionary, any, any, QueryString.ParsedQs, Record&lt;string, any&gt;&gt;, res: Response&lt;any, Record&lt;string, any&gt;&gt;, next: NextFunction): void</text><ellipse cx="1416" cy="1231.7266" fill="#84BE84" rx="3" ry="3" style="stroke:#038048;stroke-width:1.0;"/><text fill="#000000" font-family="sans-serif" font-size="14" lengthAdjust="spacing" textLength="1318" x="1425" y="1235.0732">redirectionChoixQuestion(req: Request&lt;ParamsDictionary, any, any, QueryString.ParsedQs, Record&lt;string, any&gt;&gt;, res: Response&lt;any, Record&lt;string, any&gt;&gt;, next: NextFunction): void</text><ellipse cx="1416" cy="1248.0234" fill="#84BE84" rx="3" ry="3" style="stroke:#038048;stroke-width:1.0;"/><text fill="#000000" font-family="sans-serif" font-size="14" lengthAdjust="spacing" textLength="73" x="1425" y="1251.3701">init(): void</text></g><!--class App--><g id="elem_App"><rect codeLine="193" fill="#F1F1F1" height="129.4844" id="App" rx="2.5" ry="2.5" style="stroke:#181818;stroke-width:0.5;" width="425" x="2829" y="1097"/><ellipse cx="3022.25" cy="1113" fill="#ADD1B2" rx="11" ry="11" style="stroke:#181818;stroke-width:1.0;"/><path d="M3024.5938,1108.6719 C3023.6563,1108.2344 3023.0625,1108.0938 3022.1875,1108.0938 C3019.5625,1108.0938 3017.5625,1110.1719 3017.5625,1112.8906 L3017.5625,1114.0156 C3017.5625,1116.5938 3019.6719,1118.4844 3022.5625,1118.4844 C3023.7813,1118.4844 3024.9375,1118.1875 3025.6875,1117.6406 C3026.2656,1117.2344 3026.5938,1116.7813 3026.5938,1116.3906 C3026.5938,1115.9375 3026.2031,1115.5469 3025.7344,1115.5469 C3025.5156,1115.5469 3025.3125,1115.625 3025.125,1115.8125 C3024.6719,1116.2969 3024.6719,1116.2969 3024.4844,1116.3906 C3024.0625,1116.6563 3023.375,1116.7813 3022.6094,1116.7813 C3020.5625,1116.7813 3019.2656,1115.6875 3019.2656,1113.9844 L3019.2656,1112.8906 C3019.2656,1111.1094 3020.5156,1109.7969 3022.25,1109.7969 C3022.8281,1109.7969 3023.4375,1109.9531 3023.9063,1110.2031 C3024.3906,1110.4844 3024.5625,1110.7031 3024.6563,1111.1094 C3024.7188,1111.5156 3024.75,1111.6406 3024.8906,1111.7656 C3025.0313,1111.9063 3025.2656,1112.0156 3025.4844,1112.0156 C3025.75,1112.0156 3026.0156,1111.875 3026.1875,1111.6563 C3026.2969,1111.5 3026.3281,1111.3125 3026.3281,1110.8906 L3026.3281,1109.4688 C3026.3281,1109.0313 3026.3125,1108.9063 3026.2188,1108.75 C3026.0625,1108.4844 3025.7813,1108.3438 3025.4844,1108.3438 C3025.1875,1108.3438 3024.9844,1108.4375 3024.7656,1108.75 L3024.5938,1108.6719 Z " fill="#000000"/><text fill="#000000" font-family="sans-serif" font-size="14" lengthAdjust="spacing" textLength="30" x="3042.75" y="1117.8467">App</text><line style="stroke:#181818;stroke-width:0.5;" x1="2830" x2="3253" y1="1129" y2="1129"/><ellipse cx="2840" cy="1142.6484" fill="none" rx="3" ry="3" style="stroke:#038048;stroke-width:1.0;"/><text fill="#000000" font-family="sans-serif" font-size="14" lengthAdjust="spacing" textLength="239" x="2849" y="1145.9951">expressApp: express.Application</text><line style="stroke:#181818;stroke-width:0.5;" x1="2830" x2="3253" y1="1153.2969" y2="1153.2969"/><rect fill="#F24D5C" height="6" style="stroke:#C82930;stroke-width:1.0;" width="6" x="2837" y="1163.9453"/><text fill="#000000" font-family="sans-serif" font-size="14" lengthAdjust="spacing" textLength="132" x="2849" y="1170.292">middleware(): void</text><rect fill="#F24D5C" height="6" style="stroke:#C82930;stroke-width:1.0;" width="6" x="2837" y="1180.2422"/><text fill="#000000" font-family="sans-serif" font-size="14" lengthAdjust="spacing" textLength="95" x="2849" y="1186.5889">routes(): void</text><rect fill="#F24D5C" height="6" style="stroke:#C82930;stroke-width:1.0;" width="6" x="2837" y="1196.5391"/><text fill="#000000" font-family="sans-serif" font-size="14" lengthAdjust="spacing" textLength="399" x="2849" y="1202.8857">addUserAndLogin(res: any, user: any, teacher: any): void</text><rect fill="#F24D5C" height="6" style="stroke:#C82930;stroke-width:1.0;" width="6" x="2837" y="1212.8359"/><text fill="#000000" font-family="sans-serif" font-size="14" lengthAdjust="spacing" textLength="362" x="2849" y="1219.1826">renderIndex(res: any, user: any, teacher: any): void</text></g><!--reverse link Error to default--><g id="link_Error_default"><path d="M7801.5,197.48 C7801.5,270.819 7801.5,417.344 7801.5,481.363 " fill="none" id="Error-backto-default" style="stroke:#181818;stroke-width:1.0;"/><polygon fill="none" points="7794.5,197.25,7801.5,177.25,7808.5,197.25,7794.5,197.25" style="stroke:#181818;stroke-width:1.0;"/></g><!--reverse link AbstractError to InvalidParameterError--><g id="link_AbstractError_InvalidParameterError"><path d="M7994.5,197.48 C7994.5,270.819 7994.5,417.344 7994.5,481.363 " fill="none" id="AbstractError-backto-InvalidParameterError" style="stroke:#181818;stroke-width:1.0;"/><polygon fill="none" points="7987.5,197.25,7994.5,177.25,8001.5,197.25,7987.5,197.25" style="stroke:#181818;stroke-width:1.0;"/></g><!--reverse link question to questionVraiFaux--><g id="link_question_questionVraiFaux"><path d="M4994.68,181.4 C4716.98,212.02 4280.5,269.392 3910.5,359 C3804.36,384.704 3687.72,424.4 3599.25,456.984 " fill="none" id="question-backto-questionVraiFaux" style="stroke:#181818;stroke-width:1.0;"/><polygon fill="none" points="4994.17,174.42,5014.82,179.2,4995.7,188.34,4994.17,174.42" style="stroke:#181818;stroke-width:1.0;"/></g><!--reverse link question to questionNumerique--><g id="link_question_questionNumerique"><path d="M5094.51,224.99 C4921.89,293.067 4664.78,394.468 4506.53,456.88 " fill="none" id="question-backto-questionNumerique" style="stroke:#181818;stroke-width:1.0;"/><polygon fill="none" points="5092.12,218.4,5113.3,217.58,5097.26,231.43,5092.12,218.4" style="stroke:#181818;stroke-width:1.0;"/></g><!--reverse link question to questionEssai--><g id="link_question_questionEssai"><path d="M5274.5,237.73 C5274.5,305.186 5274.5,398.138 5274.5,456.77 " fill="none" id="question-backto-questionEssai" style="stroke:#181818;stroke-width:1.0;"/><polygon fill="none" points="5267.5,237.68,5274.5,217.68,5281.5,237.68,5267.5,237.68" style="stroke:#181818;stroke-width:1.0;"/></g><!--reverse link question to questionReponseCourte--><g id="link_question_questionReponseCourte"><path d="M5454.49,224.99 C5627.11,293.067 5884.22,394.468 6042.47,456.88 " fill="none" id="question-backto-questionReponseCourte" style="stroke:#181818;stroke-width:1.0;"/><polygon fill="none" points="5451.74,231.43,5435.7,217.58,5456.88,218.4,5451.74,231.43" style="stroke:#181818;stroke-width:1.0;"/></g><!--reverse link question to questionChoixMultiples--><g id="link_question_questionChoixMultiples"><path d="M5554.15,185.54 C5831,219.23 6266.07,278.81 6637.5,359 C6751.5,383.612 6876.9,418.602 6978.34,448.961 " fill="none" id="question-backto-questionChoixMultiples" style="stroke:#181818;stroke-width:1.0;"/><polygon fill="none" points="5553.09,192.46,5534.08,183.11,5554.78,178.56,5553.09,192.46" style="stroke:#181818;stroke-width:1.0;"/></g><!--SRC=[xLfHJ-Cu47xdL_Yn5M75mzrBYf2WNKwShXnBkNqvdP29X-AzrCdQ3bU4-EyxiUCaTbBeSiVIYaDgbKpicS-VPyOpAKbAbI8qvpEGTpm1yh13y6-ta6afWKBEVZcEYTAIYxbzb6IB1HNC5yvbLkGmpWgfOlBhxFSpDzO8gBZ_yoyhqK2JMv2_PNCkl0SqII3NL2GGQ0PzQUUSo6nncVqDOZ2CoJdUS0K7TnbdX_N8epIzR1buSk0CXx4YXVOWW-Tmvt4dCRnC06T9nmapTwSif0EN60ePg4JoNFDC-0z4jWW56gPq6HDHBAv1LjEfXWbS5pec4xniX2SbQOs8gyzSyUiKARlEiXIeiF95nlWD1sdn3rf68z83BI812Xpb8x22sZeoLj9PxMXMxdV9uWDfMHhrMHg5baQXfP5lQKGUwztug0l6gT3LVknTvH92FlUkkX8UR4xFjEw-X9FQg_GLZFnLDnFRsByMe4eYd2zrxA76ZkjhEiVWcHb97J_tEQn6vY7nLOw8hmxlMwhQM4qKroG7HEnTQQub13B5vsa0wohbIeFRixZUFRSG-znwACAo5_x3JnLf-DZnvmPqjgS3QhS7qpEGdaBq723w9Ilq3uguCh-LdyQOlNBQXmvyrq7QtkbnDY8UN-Wz5JcgpLCPr04zeveAZnNhKFGQrT544-jP36veaMe2Ims2OKHBcTNfzS4DVYH9ng3EYCujJyKTJJaxfv8k0AcsavsgesgofzBg-Mb_lyaXGW6VYnTa4LXGdeQXK9v6WQmwyamGEUTOA-Dq3UnszU_sgNV-O8G3Rn-7rL3FIUsuIbCzpekT8iybNwmQsd952RJSSESYWo34L9LjXjremrDu0XhNR6rmDWwij82ldNqz4jj93LaHN5oOzTTRByrjJApOckgJsSa32LzH3iR93umVgWbFokLJUH-LnKprXNb2tjj4-m77AM2VL8Gpaqoo0vS1SEJXOKGag5AfoZ60J06oQg10Lu_96NwV5C9OxQrkq5FB41YZw_-ylpymDx65zPRuFQ_XWkk1apJ7Zj0IYvX2UWSGr14RjwAt7MoWfZIF2NxL9es6moPpTxtloL3mYYdpS09Vw96PyipW7nCFEDQE6WQfW76Lf_JUo2geq1IdJPGxqlzG9GU6-BGEZDs6PzKctHcvuO9LPVR0Ir53RukyUkA5aUTjqmR6N-FJGShSQAoUbxmjLX-NyN_rzWosKMrjGZtA-VDHjsUgm6EgWb9vsuz1MpiT8NYXiHTEJ5R-_mH_LOUpBK7tE2cIE3XeMidzjJgcY7W7TKJ2awfP3Br11xdjRzwyMLRdYZRhjL-wFBsWY6GfEyFEg7U5zU7KRHbd_TfC5p7sLzjwvuFfuGxacLCpumkUKYvXqEgXcnunQXVf_LwpHgQwOe5_nHsFMvsxrfsRt6PyMQxx73_ZgfghMDleCnqhptfxDngeZJOwXmq0srTzR1eipoEd9iaaM-ELGLBSx0Xg4pqhCoOejIKyXmb-ay5kRNtZtcv-bfIVq69PltmCt-vBCBQ2YXhme3c-w15EBrxbZNw0eXHu22h1zEAf7opE2dGgZdVlOR4VbQByFIpqmYefavr-5pixBdFxj4WrprDGhxLYSu9SE1t13tV_3Hlz9lubI-vthUzitK2wYNwtuwye2Z2xLw1HY3aACKSXvgWYfr5HakD0-5tQMfrVqySu9K4dq_kBtvFjZ9lnieQcknFVqzAicjtRrDHxjzdTWkzexkZTAj1-yjbiw18OEdzImzuEBrdn_ZDtQGoMffX7IKogwmzuarQTb0t71MSiXN-eX85NhfhOKxwCCbQcnIF1x3yQcOKO_8K2LyrM_-jaxdoDUFY0FCMlvVep7xy1]--></g></svg>